<?xml version="1.0" encoding="UTF-8"?>
<svg version="1.1" xmlns="http://www.w3.org/2000/svg" width="512" height="512">
<path d="M0 0 C0.69334946 -0.00686325 1.38669891 -0.0137265 2.10105896 -0.02079773 C4.38276917 -0.03903173 6.66378952 -0.03523331 8.94555664 -0.02954102 C10.53829674 -0.03410458 12.13103486 -0.03941067 13.72377014 -0.04542542 C17.05844126 -0.05434989 20.39287281 -0.0519412 23.72753906 -0.04199219 C27.99253259 -0.03050502 32.25669786 -0.05071278 36.5215826 -0.07990932 C39.809954 -0.09829109 43.09812765 -0.09797495 46.38653755 -0.0922718 C47.95855432 -0.09211882 49.53058469 -0.09814423 51.10255241 -0.11056328 C53.30456765 -0.12550931 55.50506229 -0.11477202 57.70703125 -0.09765625 C59.58303261 -0.097407 59.58303261 -0.097407 61.49693298 -0.09715271 C65.63426474 0.50895181 67.71925143 1.73769564 70.91821289 4.40405273 C73.43856177 7.80280785 74.54451205 11.05517204 75.54394531 15.140625 C75.96404121 16.83246666 75.96404121 16.83246666 76.3926239 18.55848694 C76.68337296 19.76693771 76.97412201 20.97538849 77.27368164 22.22045898 C77.58018143 23.46907211 77.88668121 24.71768524 78.20246887 26.00413513 C78.84885348 28.63970116 79.48957967 31.27655566 80.12597656 33.91455078 C80.9408864 37.29158115 81.76725146 40.66567577 82.59752941 44.03895664 C83.39046519 47.26489881 84.17567427 50.49269965 84.96118164 53.72045898 C85.25800339 54.93093399 85.55482513 56.141409 85.86064148 57.38856506 C86.13124893 58.51330734 86.40185638 59.63804962 86.68066406 60.796875 C86.92032394 61.78551041 87.15998383 62.77414581 87.40690613 63.79273987 C87.91821289 66.40405273 87.91821289 66.40405273 87.91821289 70.40405273 C89.07321289 70.58967773 90.22821289 70.77530273 91.41821289 70.96655273 C99.95951807 72.84047979 108.5532771 76.86455135 116.09399414 81.25170898 C118.79143183 82.6972482 118.79143183 82.6972482 121.15307617 81.73266602 C124.54500762 80.10288578 127.76416069 78.23801297 130.98461914 76.29858398 C131.65935776 75.89629074 132.33409637 75.4939975 133.02928162 75.07951355 C135.18179821 73.79523816 137.33133942 72.50608021 139.48071289 71.21655273 C140.89782445 70.36920267 142.31514042 69.52219436 143.73266602 68.67553711 C144.42686646 68.260746 145.12106689 67.8459549 145.83630371 67.41859436 C147.22221794 66.5913507 148.60868944 65.7650399 149.99572754 64.93968201 C153.14762979 63.06372184 156.29201836 61.17881376 159.41430664 59.25390625 C160.98051758 58.30342407 160.98051758 58.30342407 162.57836914 57.33374023 C163.47563721 56.78057129 164.37290527 56.22740234 165.29736328 55.6574707 C169.69290027 53.55531077 174.20574271 53.2366779 178.91821289 54.40405273 C185.21977165 57.95179988 189.9916671 63.18970928 195.05883789 68.27905273 C196.03167055 69.25053616 197.00479976 70.2217227 197.97821045 71.19262695 C200.00867662 73.22015679 202.03551216 75.25122875 204.05981445 77.28491211 C206.65106241 79.88758425 209.25122809 82.48113261 211.85416031 85.07211304 C213.8618009 87.07252068 215.86464647 89.0776746 217.86608124 91.08428955 C219.28703113 92.50721564 220.71199822 93.92612646 222.13702393 95.3449707 C222.9984198 96.2126709 223.85981567 97.08037109 224.74731445 97.97436523 C225.50643127 98.73507324 226.2655481 99.49578125 227.04766846 100.27954102 C230.90012262 104.65505002 231.58825705 108.49191779 231.47143555 114.2199707 C230.34959898 120.67671937 226.54098092 126.00379615 223.10571289 131.46655273 C222.32683283 132.74836292 221.55039955 134.03166293 220.77636719 135.31640625 C217.3600199 140.96094005 213.84587977 146.53906402 210.26977539 152.08374023 C209.74875244 152.90221436 209.22772949 153.72068848 208.69091797 154.56396484 C207.7451766 156.03910634 206.77989879 157.50197665 205.79199219 158.94921875 C203.83536014 161.9775834 202.80196412 163.69710897 203.39868164 167.32592773 C203.90012695 168.34170898 204.40157227 169.35749023 204.91821289 170.40405273 C205.54594918 171.80517376 206.17071787 173.20762649 206.79321289 174.61108398 C207.85122881 176.9146373 208.91698011 179.21393307 209.99633789 181.50756836 C212.39572055 186.75845615 213.83419262 191.72988413 214.91821289 197.40405273 C215.9873291 197.51128662 217.05644531 197.61852051 218.15795898 197.72900391 C223.89804027 198.45077993 229.46612417 199.84243608 235.08227539 201.20483398 C236.23311615 201.48248093 237.38395691 201.76012787 238.56967163 202.04618835 C240.99244452 202.63296346 243.41460529 203.2222711 245.83618164 203.81396484 C249.53524477 204.71461266 253.23824941 205.59760855 256.94165039 206.48022461 C259.30128901 207.05401137 261.66067317 207.62884579 264.01977539 208.20483398 C265.67464462 208.59569939 265.67464462 208.59569939 267.36294556 208.99446106 C279.3676406 211.97282409 279.3676406 211.97282409 283.54570007 217.59347534 C285.25161232 221.08677487 285.30548135 223.60313442 285.32226562 227.48583984 C285.3325605 228.52586403 285.3325605 228.52586403 285.34306335 229.5868988 C285.36129735 231.86860901 285.35749893 234.14962936 285.35180664 236.43139648 C285.3563702 238.02413658 285.3616763 239.61687471 285.36769104 241.20960999 C285.37661551 244.54428111 285.37420682 247.87871266 285.36425781 251.21337891 C285.35277064 255.47837244 285.37297841 259.7425377 285.40217495 264.00742245 C285.42055671 267.29579385 285.42024058 270.58396749 285.41453743 273.8723774 C285.41438445 275.44439417 285.42040986 277.01642454 285.4328289 278.58839226 C285.44777494 280.7904075 285.43703765 282.99090213 285.41992188 285.19287109 C285.41967262 287.06887245 285.41967262 287.06887245 285.41941833 288.98277283 C284.81331382 293.12010459 283.58456998 295.20509127 280.91821289 298.40405273 C277.51945778 300.92440161 274.26709358 302.0303519 270.18164062 303.02978516 C269.05374619 303.30984909 267.92585175 303.58991302 266.76377869 303.87846375 C265.55532791 304.1692128 264.34687714 304.45996185 263.10180664 304.75952148 C261.22888695 305.21927116 261.22888695 305.21927116 259.31813049 305.68830872 C256.68256446 306.33469332 254.04570997 306.97541952 251.40771484 307.61181641 C248.03068448 308.42672624 244.65658985 309.2530913 241.28330898 310.08336926 C238.05736681 310.87630503 234.82956597 311.66151411 231.60180664 312.44702148 C230.39133163 312.74384323 229.18085663 313.04066498 227.93370056 313.34648132 C226.80895828 313.61708878 225.684216 313.88769623 224.52539062 314.16650391 C223.53675522 314.40616379 222.54811981 314.64582367 221.52952576 314.89274597 C218.91821289 315.40405273 218.91821289 315.40405273 214.91821289 315.40405273 C214.67071289 316.69827148 214.42321289 317.99249023 214.16821289 319.32592773 C213.03371816 324.4271593 211.12555779 328.93545312 208.91821289 333.65405273 C208.20916458 335.20060014 207.50081125 336.74746639 206.79321289 338.29467773 C206.48125977 338.9653125 206.16930664 339.63594727 205.84790039 340.3269043 C205.54110352 341.01236328 205.23430664 341.69782227 204.91821289 342.40405273 C204.48484619 343.19118652 204.05147949 343.97832031 203.60498047 344.78930664 C202.61806064 347.48087729 202.61806064 347.48087729 204.07714844 350.24047852 C204.72981689 351.26641113 205.38248535 352.29234375 206.05493164 353.34936523 C206.40578827 353.91264526 206.7566449 354.47592529 207.11813354 355.05627441 C207.87305713 356.2637381 208.63623761 357.46607112 209.4067688 358.66363525 C210.6115774 360.53817722 211.79216164 362.42600671 212.96679688 364.31958008 C215.26820397 368.02438848 217.59176814 371.71493479 219.91821289 375.40405273 C222.13666738 378.92795157 224.32443913 382.46683394 226.48071289 386.02905273 C226.93857178 386.74206543 227.39643066 387.45507812 227.86816406 388.18969727 C230.99671303 393.39594729 232.19833197 398.36994076 230.91821289 404.40405273 C227.83796775 411.20103019 222.83146723 415.92559387 217.58618164 421.13452148 C216.67620926 422.04736404 215.76623688 422.9602066 214.82868958 423.90071106 C212.90950509 425.82429698 210.98505589 427.74240777 209.05664062 429.65673828 C206.59875833 432.09753005 204.15459441 434.55154691 201.71424389 437.00985241 C199.36636 439.37125068 197.00703729 441.72108102 194.64868164 444.07202148 C193.77866013 444.94811569 192.90863861 445.8242099 192.01225281 446.72685242 C180.66295983 457.94643761 180.66295983 457.94643761 173.66821289 458.02905273 C169.92352604 457.7582524 167.41234672 456.8164183 164.15258789 454.97436523 C163.18998047 454.43150879 162.22737305 453.88865234 161.2355957 453.3293457 C155.33005649 449.90197727 149.44607272 446.44027103 143.58129883 442.94360352 C141.39542202 441.64046567 139.2077431 440.34039507 137.01977539 439.04077148 C135.62123366 438.20891544 134.22279239 437.37689048 132.82446289 436.54467773 C132.17449341 436.15822083 131.52452393 435.77176392 130.8548584 435.37359619 C128.16696352 433.77011306 125.52312869 432.14066327 122.91821289 430.40405273 C118.02575107 430.70416095 114.05239098 432.56523527 109.73071289 434.71655273 C93.78363822 442.40405273 93.78363822 442.40405273 87.91821289 442.40405273 C87.810979 443.47316895 87.70374512 444.54228516 87.59326172 445.64379883 C86.8714857 451.38388011 85.47982954 456.95196402 84.11743164 462.56811523 C83.8397847 463.71895599 83.56213776 464.86979675 83.27607727 466.05551147 C82.68930217 468.47828436 82.09999452 470.90044514 81.50830078 473.32202148 C80.60765297 477.02108462 79.72465708 480.72408925 78.84204102 484.42749023 C78.26825425 486.78712885 77.69341983 489.14651302 77.11743164 491.50561523 C76.85685471 492.60886139 76.59627777 493.71210754 76.32780457 494.8487854 C73.34944154 506.85348044 73.34944154 506.85348044 67.72879028 511.03153992 C64.23549075 512.73745216 61.7191312 512.79132119 57.83642578 512.80810547 C57.14307632 512.81496872 56.44972687 512.82183197 55.73536682 512.8289032 C53.45365661 512.84713719 51.17263626 512.84333878 48.89086914 512.83764648 C47.29812904 512.84221005 45.70539092 512.84751614 44.11265564 512.85353088 C40.77798452 512.86245536 37.44355297 512.86004667 34.10888672 512.85009766 C29.84389319 512.83861049 25.57972792 512.85881825 21.31484318 512.88801479 C18.02647178 512.90639656 14.73829813 512.90608042 11.44988823 512.90037727 C9.87787146 512.90022429 8.30584109 512.9062497 6.73387337 512.91866875 C4.53185813 512.93361478 2.3313635 512.92287749 0.12939453 512.90576172 C-1.12127304 512.90559555 -2.37194061 512.90542938 -3.6605072 512.90525818 C-7.79783896 512.29915366 -9.88282565 511.07040983 -13.08178711 508.40405273 C-15.60213598 505.00529762 -16.70808627 501.75293342 -17.70751953 497.66748047 C-17.98758347 496.53958603 -18.2676474 495.41169159 -18.55619812 494.24961853 C-18.84694717 493.04116776 -19.13769623 491.83271698 -19.43725586 490.58764648 C-19.89700554 488.71472679 -19.89700554 488.71472679 -20.36604309 486.80397034 C-21.0124277 484.16840431 -21.65315389 481.53154981 -22.28955078 478.89355469 C-23.10446061 475.51652432 -23.93082568 472.1424297 -24.76110363 468.76914883 C-25.55403941 465.54320666 -26.33924849 462.31540582 -27.12475586 459.08764648 C-27.42157761 457.87717148 -27.71839935 456.66669647 -28.0242157 455.41954041 C-28.29482315 454.29479813 -28.5654306 453.17005585 -28.84423828 452.01123047 C-29.2037281 450.52827736 -29.2037281 450.52827736 -29.57048035 449.0153656 C-30.08178711 446.40405273 -30.08178711 446.40405273 -30.08178711 442.40405273 C-32.02504883 442.03280273 -32.02504883 442.03280273 -34.00756836 441.65405273 C-39.09212956 440.52348677 -43.5716821 438.61469039 -48.26928711 436.40405273 C-49.80323431 435.69310491 -51.33836834 434.98471144 -52.87475586 434.27905273 C-53.87285278 433.81112305 -53.87285278 433.81112305 -54.89111328 433.33374023 C-55.61403564 433.02694336 -56.33695801 432.72014648 -57.08178711 432.40405273 C-58.02650879 431.96923584 -58.97123047 431.53441895 -59.94458008 431.08642578 C-64.23684353 430.15281673 -65.77845866 431.34487542 -69.48413086 433.61108398 C-70.07949142 433.96736374 -70.67485199 434.32364349 -71.28825378 434.6907196 C-73.21072501 435.8472139 -75.11444994 437.03128352 -77.01928711 438.21655273 C-78.32980432 439.01145195 -79.64149425 439.80442094 -80.9543457 440.59545898 C-84.12036295 442.50830425 -87.27309285 444.44177022 -90.42169189 446.38311768 C-93.3773599 448.20081166 -96.35069376 449.98891465 -99.32617188 451.77392578 C-101.06512871 452.81892529 -102.79647219 453.87656596 -104.52709961 454.93530273 C-108.87986309 457.43780895 -113.12946001 458.13259122 -118.08178711 457.40405273 C-122.475481 455.48181757 -125.56705722 453.29683428 -128.95385742 449.92016602 C-129.86790344 449.01557648 -130.78194946 448.11098694 -131.72369385 447.1789856 C-132.70281669 446.19449332 -133.6815468 445.20961033 -134.65991211 444.22436523 C-135.67743939 443.20886126 -136.69541145 442.19380278 -137.71380615 441.1791687 C-139.84007464 439.05730943 -141.96085702 436.93015402 -144.07788086 434.79907227 C-146.78679849 432.07304182 -149.50899282 429.3607319 -152.23543167 426.65223885 C-154.33756096 424.56096666 -156.4324723 422.46258123 -158.52529144 420.3619957 C-159.52619239 419.35909921 -160.52931093 418.35841069 -161.53470612 417.36001968 C-162.9395091 415.96286462 -164.33363978 414.55500372 -165.72729492 413.14672852 C-166.52194153 412.34969513 -167.31658813 411.55266174 -168.13531494 410.73147583 C-171.55061052 406.64776072 -172.55043427 402.81560832 -172.38989258 397.48413086 C-171.83637365 393.74722022 -170.06984608 390.855252 -168.14428711 387.65405273 C-167.71913818 386.91324463 -167.29398926 386.17243652 -166.85595703 385.40917969 C-164.24602563 380.91036955 -161.52061041 376.48482076 -158.77235413 372.06973267 C-157.59470919 370.17705242 -156.42187476 368.2814535 -155.24951172 366.38549805 C-153.6960797 363.87380542 -152.12133544 361.37731647 -150.53320312 358.88745117 C-149.80528631 357.72019553 -149.07796463 356.55256849 -148.35131836 355.38452148 C-147.69752197 354.35222412 -147.04372559 353.31992676 -146.37011719 352.25634766 C-144.89141325 348.98257505 -144.94028995 347.75060365 -146.08178711 344.40405273 C-147.14208702 341.99402722 -148.2348743 339.6395339 -149.39428711 337.27905273 C-157.08178711 321.22150847 -157.08178711 321.22150847 -157.08178711 315.40405273 C-158.68546143 315.2432019 -158.68546143 315.2432019 -160.3215332 315.07910156 C-166.06161449 314.35732554 -171.62969839 312.96566939 -177.24584961 311.60327148 C-178.39669037 311.32562454 -179.54753113 311.0479776 -180.73324585 310.76191711 C-183.15601874 310.17514201 -185.57817951 309.58583437 -187.99975586 308.99414062 C-191.69881899 308.09349281 -195.40182362 307.21049692 -199.10522461 306.32788086 C-201.46486323 305.7540941 -203.82424739 305.17925967 -206.18334961 304.60327148 C-207.28659576 304.34269455 -208.38984192 304.08211761 -209.52651978 303.81364441 C-221.53121482 300.83528138 -221.53121482 300.83528138 -225.70927429 295.21463013 C-227.41518653 291.7213306 -227.46905557 289.20497104 -227.48583984 285.32226562 C-227.49613472 284.28224144 -227.49613472 284.28224144 -227.50663757 283.22120667 C-227.52487157 280.93949646 -227.52107315 278.6584761 -227.51538086 276.37670898 C-227.51994442 274.78396889 -227.52525052 273.19123076 -227.53126526 271.59849548 C-227.54018973 268.26382436 -227.53778104 264.92939281 -227.52783203 261.59472656 C-227.51634486 257.32973303 -227.53655263 253.06556777 -227.56574917 248.80068302 C-227.58413093 245.51231162 -227.5838148 242.22413798 -227.57811165 238.93572807 C-227.57795866 237.3637113 -227.58398408 235.79168093 -227.59640312 234.21971321 C-227.61134916 232.01769797 -227.60061187 229.81720334 -227.58349609 227.61523438 C-227.58332993 226.3645668 -227.58316376 225.11389923 -227.58299255 223.82533264 C-226.97688804 219.68800088 -225.7481442 217.6030142 -223.08178711 214.40405273 C-219.68303199 211.88370386 -216.4306678 210.77775357 -212.34521484 209.77832031 C-210.65337318 209.35822441 -210.65337318 209.35822441 -208.92735291 208.92964172 C-207.71890213 208.63889267 -206.51045135 208.34814362 -205.26538086 208.04858398 C-203.39246117 207.5888343 -203.39246117 207.5888343 -201.48170471 207.11979675 C-198.84613868 206.47341215 -196.20928418 205.83268595 -193.57128906 205.19628906 C-190.19425869 204.38137923 -186.82016407 203.55501416 -183.4468832 202.72473621 C-180.22094103 201.93180044 -176.99314019 201.14659136 -173.76538086 200.36108398 C-171.94966835 199.91585136 -171.94966835 199.91585136 -170.09727478 199.46162415 C-168.9725325 199.19101669 -167.84779022 198.92040924 -166.68896484 198.64160156 C-165.20601173 198.28211174 -165.20601173 198.28211174 -163.69309998 197.9153595 C-161.08178711 197.40405273 -161.08178711 197.40405273 -157.08178711 197.40405273 C-156.8381543 196.10983398 -156.59452148 194.81561523 -156.34350586 193.48217773 C-155.01545111 187.49479586 -152.42866802 182.27993195 -149.73999023 176.80249023 C-149.38485352 176.04709961 -149.0297168 175.29170898 -148.66381836 174.51342773 C-148.33615479 173.84279297 -148.00849121 173.1721582 -147.67089844 172.48120117 C-146.57972373 168.63382676 -147.75914581 166.01435013 -149.58129883 162.56762695 C-150.53673584 161.02872803 -150.53673584 161.02872803 -151.51147461 159.45874023 C-151.85804108 158.89514297 -152.20460754 158.33154572 -152.56167603 157.75086975 C-153.30339132 156.54612698 -154.04839192 155.34340168 -154.79638672 154.14254761 C-156.74789039 151.0086146 -158.67463969 147.85949179 -160.60522461 144.71264648 C-160.98922424 144.08828201 -161.37322388 143.46391754 -161.76885986 142.82063293 C-165.11596926 137.37160205 -168.37808773 131.8762158 -171.58178711 126.34155273 C-172.03150879 125.5698877 -172.48123047 124.79822266 -172.94458008 124.00317383 C-176.14923955 118.44682058 -178.08061547 113.89363295 -177.08178711 107.40405273 C-173.96584543 100.26596003 -168.01866305 94.92056597 -162.58178711 89.54077148 C-161.21183594 88.17007256 -161.21183594 88.17007256 -159.81420898 86.77168274 C-157.89245775 84.85002062 -155.96570291 82.93357452 -154.03491211 81.02099609 C-151.56850875 78.57735796 -149.1134192 76.12271332 -146.66174316 73.6643095 C-144.30697021 71.30538306 -141.94417359 68.95457385 -139.58178711 66.60327148 C-138.70458008 65.72515305 -137.82737305 64.84703461 -136.92358398 63.94230652 C-136.09922852 63.12748306 -135.27487305 62.31265961 -134.42553711 61.47314453 C-133.345625 60.40014351 -133.345625 60.40014351 -132.24389648 59.3054657 C-127.19657165 54.86672223 -123.20593644 53.56790425 -116.56030273 53.7487793 C-109.34855364 55.10730924 -103.4417198 59.39281279 -97.33178711 63.27905273 C-95.90711518 64.15559674 -94.48083493 65.02953193 -93.05297852 65.90087891 C-87.19123784 69.49451457 -81.39116822 73.17594023 -75.65209961 76.96264648 C-74.91830078 77.44169434 -74.18450195 77.92074219 -73.4284668 78.41430664 C-72.1621384 79.2506855 -70.90865029 80.10702896 -69.67260742 80.98754883 C-66.84287291 82.88392873 -65.53480784 83.48985666 -62.13256836 82.84545898 C-61.12581055 82.36979492 -60.11905273 81.89413086 -59.08178711 81.40405273 C-57.93323242 80.88069336 -56.78467773 80.35733398 -55.60131836 79.81811523 C-54.36478986 79.22352848 -53.12913885 78.62711403 -51.89428711 78.02905273 C-35.84625274 70.40405273 -35.84625274 70.40405273 -30.08178711 70.40405273 C-29.92093628 68.80037842 -29.92093628 68.80037842 -29.75683594 67.16430664 C-29.03505991 61.42422536 -27.64340376 55.85614145 -26.28100586 50.23999023 C-26.00335892 49.08914948 -25.72571198 47.93830872 -25.43965149 46.75259399 C-24.85287639 44.3298211 -24.26356874 41.90766033 -23.671875 39.48608398 C-22.77122719 35.78702085 -21.8882313 32.08401622 -21.00561523 28.38061523 C-20.43182847 26.02097661 -19.85699405 23.66159245 -19.28100586 21.30249023 C-19.02042892 20.19924408 -18.75985199 19.09599792 -18.49137878 17.95932007 C-15.51301576 5.95462503 -15.51301576 5.95462503 -9.8923645 1.77656555 C-6.39906497 0.07065331 -3.88270542 0.01678428 0 0 Z M-48.08178711 185.40405273 C-68.49032942 207.29334101 -76.20712423 234.31802561 -75.46069336 263.66967773 C-74.80281648 278.42756783 -70.71485004 291.28453366 -64.08178711 304.40405273 C-63.54682617 305.46237305 -63.01186523 306.52069336 -62.46069336 307.61108398 C-49.15890612 331.94984577 -25.38829402 349.87645472 1.04321289 357.71655273 C29.58003694 364.59756146 57.32692405 360.77078583 82.91821289 346.40405273 C87.19999093 343.75025415 91.0854371 340.66732246 94.91821289 337.40405273 C95.77543945 336.69635742 96.63266602 335.98866211 97.51586914 335.25952148 C116.47375091 318.99735088 130.05540813 295.39532687 132.91821289 270.40405273 C135.1638458 240.90480675 129.41770285 213.30659504 109.91821289 190.40405273 C109.21051758 189.54682617 108.50282227 188.68959961 107.77368164 187.80639648 C89.32560364 166.30025871 63.51845778 154.15759132 35.48071289 151.52905273 C3.13795983 150.11081437 -25.52140307 162.54286358 -48.08178711 185.40405273 Z " fill="#FFFFFF" transform="translate(227.081787109375,-0.404052734375)"/>
</svg>
