<?xml version="1.0" encoding="UTF-8"?>
<svg version="1.1" xmlns="http://www.w3.org/2000/svg" width="512" height="512">
<path d="M0 0 C110.22 0 220.44 0 334 0 C334.99 6.27 335.98 12.54 337 19 C341.06724372 31.64143319 346.78373628 41.71594921 358.75 48.1875 C374.18688686 54.77087822 383.65813686 53 402 53 C402 100.19 402 147.38 402 196 C396.72 196.33 391.44 196.66 386 197 C382.95580267 197.47375777 380.1434977 197.94342477 377.1875 198.6875 C376.48447754 198.86047607 375.78145508 199.03345215 375.05712891 199.21166992 C364.39860738 202.02097783 355.30510401 207.17086337 349.34765625 216.62109375 C342.48091487 229.26328508 341.90004772 241.59923645 341 256 C228.47 256 115.94 256 0 256 C-0.33 249.4 -0.66 242.8 -1 236 C-4.09847442 223.83561895 -9.79205304 211.90198671 -20.69726562 204.91210938 C-33.27151857 197.45634776 -44.36198304 196 -59 196 C-59 150.46 -59 104.92 -59 58 C-49.595 57.01 -49.595 57.01 -40 56 C-29.66836627 53.37177738 -20.13090514 50.28726813 -13 42 C-12.26136719 41.15501953 -12.26136719 41.15501953 -11.5078125 40.29296875 C-2.04495371 28.73509893 -1.02773288 14.38826028 0 0 Z M108 60 C107.29359375 60.62390625 106.5871875 61.2478125 105.859375 61.890625 C90.09047065 76.66621254 79.51631844 99.66238968 78.76171875 121.23828125 C78.24334262 149.41190775 85.98089198 172.78501356 105.51171875 193.59765625 C125.40387269 212.80279702 149.74889544 220.50057876 176.98828125 220.21484375 C198.24699038 219.68378833 218.35966828 210.083484 234 196 C234.76957031 195.32453125 235.53914062 194.6490625 236.33203125 193.953125 C252.37214549 179.00857023 263.0952676 155.93976081 264 134 C264.0515625 133.06414062 264.103125 132.12828125 264.15625 131.1640625 C264.8607704 107.38649899 256.38270829 85.01521301 241 67 C240.36578125 66.17242187 239.7315625 65.34484375 239.078125 64.4921875 C226.30042709 49.1685573 205.36806609 39.36251147 186 36 C185.29875 35.86980469 184.5975 35.73960937 183.875 35.60546875 C156.00284452 31.25044446 128.56841996 41.52772475 108 60 Z M-9.7734375 115.12109375 C-13.4799531 120.79890905 -13.74970711 126.40072633 -13 133 C-10.98398806 139.46213558 -7.00024776 143.95105031 -1.4375 147.75 C3.73838446 150.40429972 8.76806994 150.85023834 14.46484375 149.3515625 C21.43325433 146.89952028 25.62341119 143.59052134 29.02734375 137.015625 C31.5717407 130.96535391 31.85629074 125.68919033 29.5 119.5 C26.73960408 113.75326829 22.30692576 109.59479162 16.578125 106.83203125 C5.94906156 103.4017426 -2.90144208 106.84782553 -9.7734375 115.12109375 Z M315.2265625 115.12109375 C311.5200469 120.79890905 311.25029289 126.40072633 312 133 C314.01601194 139.46213558 317.99975224 143.95105031 323.5625 147.75 C328.73838446 150.40429972 333.76806994 150.85023834 339.46484375 149.3515625 C346.48818306 146.88019198 350.41977 143.56283321 354.0625 137.12109375 C356.98652975 130.65951016 356.13080802 124.39242405 353.9375 117.8125 C350.18035941 112.35858623 345.36991578 108.02986694 339 106 C328.73271941 104.68014031 321.79404198 107.2144355 315.2265625 115.12109375 Z " fill="#000000" transform="translate(59,104)"/>
<path d="M0 0 C4.37487331 -0.08738991 8.74952078 -0.140524 13.125 -0.1875 C14.98125 -0.22520508 14.98125 -0.22520508 16.875 -0.26367188 C18.67324219 -0.27817383 18.67324219 -0.27817383 20.5078125 -0.29296875 C21.60754395 -0.3086792 22.70727539 -0.32438965 23.84033203 -0.34057617 C28.2763644 0.13757753 31.61478028 1.69609297 34.86328125 4.75390625 C35.34152344 5.35074219 35.81976563 5.94757813 36.3125 6.5625 C36.80363281 7.16191406 37.29476563 7.76132813 37.80078125 8.37890625 C40.70343959 12.30269522 40.15128077 16.30332926 40.15390015 20.99429321 C40.1582824 21.93774168 40.16266465 22.88119015 40.1671797 23.85322797 C40.18060126 27.03447816 40.18675412 30.21570062 40.19287109 33.39697266 C40.20076949 35.66997402 40.20903828 37.94297413 40.21765137 40.2159729 C40.24390446 47.69865719 40.25918349 55.18134718 40.2734375 62.6640625 C40.27879606 65.23753234 40.28417356 67.81100213 40.28956985 70.38447189 C40.31120447 81.08860915 40.33009288 91.79274354 40.34119225 102.49689674 C40.34412195 105.27543772 40.3470836 108.05397865 40.35009766 110.83251953 C40.35084371 111.52311267 40.35158976 112.21370581 40.35235842 112.92522602 C40.36500597 124.10686299 40.39821993 135.28834073 40.43989949 146.46990331 C40.48234423 157.95094302 40.50548284 169.43186204 40.51111281 180.91298711 C40.51476891 187.3587183 40.52681798 193.80417974 40.55921555 200.24983597 C40.58926531 206.31554574 40.59561869 212.38082212 40.58383179 218.44659042 C40.58361079 220.67180241 40.59193742 222.89703432 40.60948563 225.12217712 C40.63216093 228.16324149 40.62388897 231.20273227 40.60800171 234.24380493 C40.6218838 235.12183797 40.63576588 235.999871 40.65006864 236.90451109 C40.57311796 242.89379084 39.27282245 247.62579335 35 252 C30.04489497 255.39852512 26.37431759 256.58647396 20.33063412 256.50336456 C19.58653549 256.50917833 18.84243685 256.51499209 18.07578978 256.52098203 C15.58632206 256.5355618 13.09784345 256.52170686 10.60838318 256.50793457 C8.80407507 256.51254429 6.99977071 256.51889768 5.19547421 256.52684355 C0.24028335 256.54355008 -4.71459958 256.53528444 -9.66979158 256.52289867 C-15.01477614 256.51385603 -20.35970739 256.52781397 -25.7046814 256.53881836 C-36.17404903 256.55661617 -46.64330204 256.55275806 -57.11267418 256.5411678 C-65.61980789 256.53213921 -74.12690944 256.53090699 -82.63404655 256.53526306 C-83.84419865 256.53587599 -85.05435074 256.53648893 -86.30117412 256.53712043 C-88.759458 256.53839931 -91.21774188 256.53969617 -93.67602574 256.5410108 C-116.73356299 256.55242017 -139.79103666 256.53929702 -162.84856348 256.51780933 C-182.64085476 256.49993578 -202.43305221 256.50304391 -222.2253418 256.52148438 C-245.20116358 256.54288086 -268.17692962 256.55132388 -291.15275997 256.53903532 C-293.60176304 256.5377611 -296.05076612 256.53650362 -298.49976921 256.53526306 C-299.70477621 256.53464596 -300.90978321 256.53402886 -302.15130557 256.53339306 C-310.65053671 256.52993666 -319.14973254 256.53577469 -327.64895821 256.54518127 C-338.00327818 256.55638894 -348.35747684 256.55338702 -358.71178288 256.5320583 C-363.99656316 256.52153169 -369.28114101 256.51745357 -374.56591988 256.53065491 C-379.40125162 256.54255105 -384.23619279 256.53606213 -389.07148897 256.5147447 C-390.82305333 256.51026687 -392.57465052 256.51257128 -394.32619388 256.52224785 C-396.70342638 256.53437634 -399.07931346 256.52197406 -401.45647526 256.50336456 C-402.48147917 256.51741156 -402.48147917 256.51741156 -403.52719024 256.53174233 C-408.43973307 256.45464616 -411.19285276 255.02512088 -415 252 C-419.41956991 247.2121326 -421.26810017 242.99496565 -421.1953125 236.48046875 C-421.18564453 234.9480957 -421.18564453 234.9480957 -421.17578125 233.38476562 C-421.15902344 232.32966797 -421.14226562 231.27457031 -421.125 230.1875 C-421.11597656 229.11306641 -421.10695313 228.03863281 -421.09765625 226.93164062 C-421.07415306 224.28753146 -421.04129575 221.64388128 -421 219 C-420.16375725 218.99940291 -419.3275145 218.99880582 -418.46593106 218.99819064 C-368.9053457 218.9622981 -319.34482106 218.90566128 -269.78429199 218.82207905 C-263.83373397 218.81206157 -257.88317567 218.80221744 -251.93261719 218.79248047 C-250.74796623 218.7905391 -249.56331527 218.78859772 -248.34276579 218.78659752 C-229.16010699 218.75557493 -209.97746015 218.73859614 -190.79478098 218.72680578 C-171.11214256 218.71439558 -151.42956693 218.68689709 -131.74696815 218.64538693 C-119.60137773 218.62024787 -107.45589145 218.60688303 -95.31027465 218.60857043 C-86.98200283 218.60860018 -78.65383713 218.59397639 -70.32560666 218.56783572 C-65.52036919 218.55318557 -60.71534931 218.5449905 -55.91009331 218.55419731 C-51.50786345 218.56248916 -47.10607064 218.55231587 -42.70390557 218.52766338 C-41.11424579 218.52198345 -39.52454453 218.5229895 -37.93489732 218.53148755 C-26.86327294 218.58558789 -16.99748256 217.68590582 -8.53515625 209.84375 C-2.61758775 202.73664483 -0.85361665 195.14657442 -0.84178162 186.1539917 C-0.83684364 185.35836484 -0.83190566 184.56273798 -0.82681805 183.74300122 C-0.81144818 181.07443781 -0.8030838 178.40589845 -0.79467773 175.73730469 C-0.78509881 173.82540678 -0.77508872 171.91351099 -0.76467896 170.00161743 C-0.73762539 164.8078186 -0.71661824 159.61401068 -0.69667697 154.42018032 C-0.67482023 148.99358396 -0.64743001 143.56701564 -0.62062073 138.14044189 C-0.57068963 127.86287673 -0.52575233 117.58529601 -0.48259836 107.3077004 C-0.43322957 95.6076908 -0.3783101 83.90770934 -0.32291877 72.20772696 C-0.20909232 48.13851088 -0.1022547 24.06926782 0 0 Z " fill="#000000" transform="translate(472,152)"/>
<path d="M0 0 C2.48644199 2.20850135 4.88697718 4.48121717 7.2734375 6.796875 C7.89863281 7.34859375 8.52382813 7.9003125 9.16796875 8.46875 C23.37871562 21.42843789 30.44441229 42.06561613 31.43359375 60.8359375 C32.03000812 83.81085638 24.38904979 104.57974219 8.66430664 121.44677734 C-6.4020285 136.98258731 -26.011234 145.62298084 -47.59204102 146.26782227 C-68.75357647 146.46396081 -87.56004956 140.83345859 -103.7265625 126.796875 C-105.2425 125.6521875 -105.2425 125.6521875 -106.7890625 124.484375 C-120.38178629 112.04847877 -130.59571085 92.87680554 -131.90356445 74.2800293 C-132.5203112 47.51911786 -126.74747323 25.42931923 -107.8515625 5.546875 C-78.8751712 -22.02562137 -31.52477519 -25.47274099 0 0 Z M-54.43359375 -4.12109375 C-56.32439275 -1.31631336 -56.24834656 1.13691309 -56.4140625 4.484375 C-56.47980469 5.66386719 -56.54554688 6.84335938 -56.61328125 8.05859375 C-56.65066406 8.96222656 -56.68804687 9.86585938 -56.7265625 10.796875 C-57.2834375 11.00441406 -57.8403125 11.21195313 -58.4140625 11.42578125 C-67.68986773 15.17057424 -74.18406831 20.82886072 -78.7265625 29.796875 C-81.1793707 37.15529959 -80.90169414 46.45603979 -77.4765625 53.421875 C-76.5950153 54.90170216 -75.68267799 56.36409551 -74.7265625 57.796875 C-74.1696875 58.704375 -73.6128125 59.611875 -73.0390625 60.546875 C-66.16809352 67.23214212 -59.10390566 69.56630704 -49.79223633 70.68408203 C-43.64766376 71.48934556 -39.69114014 73.67300728 -35.4140625 78.296875 C-32.35134918 82.83422807 -32.18020348 87.39399134 -32.7265625 92.796875 C-34.79510853 99.5771092 -37.99581163 102.78800915 -44.1640625 106.109375 C-50.45069912 107.7960336 -56.09507919 106.89122688 -61.7265625 103.796875 C-66.783585 99.41412217 -67.74082327 94.86763785 -69.05078125 88.40625 C-69.52708535 85.65818947 -69.52708535 85.65818947 -71.7265625 83.796875 C-74.7265625 83.46354167 -74.7265625 83.46354167 -77.7265625 83.796875 C-80.16582991 86.23614241 -80.04896769 86.99856686 -80.1015625 90.359375 C-79.89835798 98.66685391 -76.36783525 104.97082224 -70.796875 111 C-66.58591243 114.6547977 -61.38545532 117.796875 -55.7265625 117.796875 C-55.77296875 118.77269531 -55.819375 119.74851562 -55.8671875 120.75390625 C-55.90328125 122.02621094 -55.939375 123.29851562 -55.9765625 124.609375 C-56.02296875 125.87394531 -56.069375 127.13851562 -56.1171875 128.44140625 C-56.0578999 131.83462383 -56.0578999 131.83462383 -53.875 133.78515625 C-51.70471472 135.08014834 -51.70471472 135.08014834 -49.1015625 134.171875 C-46.46021779 132.87635732 -46.46021779 132.87635732 -44.7265625 129.796875 C-44.48436935 126.82237892 -44.48436935 126.82237892 -44.6015625 123.609375 C-44.61960938 122.52269531 -44.63765625 121.43601562 -44.65625 120.31640625 C-44.67945313 119.48496094 -44.70265625 118.65351563 -44.7265625 117.796875 C-44.15808594 117.63832031 -43.58960938 117.47976563 -43.00390625 117.31640625 C-33.17825168 114.34738542 -27.65658778 109.88513246 -22.7265625 100.796875 C-19.80867371 93.50215303 -19.64476688 86.06001426 -22.2890625 78.671875 C-25.94384626 70.50311271 -31.73507073 64.74688125 -39.7265625 60.796875 C-42.93792112 59.81149636 -46.16521551 59.21770143 -49.4765625 58.671875 C-59.11777032 57.0229165 -59.11777032 57.0229165 -62.7265625 53.796875 C-63.3865625 53.796875 -64.0465625 53.796875 -64.7265625 53.796875 C-67.64171536 47.34189368 -69.7778667 40.67608209 -67.62109375 33.71875 C-65.57737079 29.32786923 -62.54239224 25.95698844 -58.4765625 23.359375 C-51.66420856 21.96593897 -45.53454655 21.99304555 -39.4140625 25.546875 C-34.93649684 28.86359031 -33.62230532 32.71787246 -32.6640625 37.984375 C-32.54933594 38.82355469 -32.43460938 39.66273438 -32.31640625 40.52734375 C-31.63413583 43.15250345 -30.86101673 44.15819864 -28.7265625 45.796875 C-26.2265625 46.38020833 -26.2265625 46.38020833 -23.7265625 45.796875 C-21.75716732 43.72993903 -20.79797705 42.43291086 -20.4765625 39.5703125 C-21.38076363 30.89563295 -24.12798601 23.8194754 -30.6640625 17.859375 C-35.17863827 14.254516 -38.81664883 11.796875 -44.7265625 11.796875 C-44.68015625 10.90484375 -44.63375 10.0128125 -44.5859375 9.09375 C-44.54984375 7.92328125 -44.51375 6.7528125 -44.4765625 5.546875 C-44.43015625 4.38671875 -44.38375 3.2265625 -44.3359375 2.03125 C-44.46658638 -1.26028663 -44.46658638 -1.26028663 -46.4921875 -3.625 C-49.28999726 -5.60107542 -51.4175489 -6.03286589 -54.43359375 -4.12109375 Z " fill="#000000" transform="translate(280.7265625,167.203125)"/>
<path d="M0 0 C1.10788879 0.00507568 1.10788879 0.00507568 2.23815918 0.01025391 C4.04551148 0.01902391 5.85284005 0.03247301 7.66015625 0.046875 C7.73481726 4.74247843 7.78899726 9.43772943 7.82495117 14.13378906 C7.8399537 15.72825141 7.86036246 17.32267308 7.88647461 18.91699219 C7.92323759 21.22080577 7.9399678 23.5240696 7.953125 25.828125 C7.96860886 26.53054321 7.98409271 27.23296143 8.00004578 27.95666504 C8.0018992 33.51958246 7.09734118 39.26966723 3.31413269 43.58068848 C-2.34188833 48.54203319 -7.3990651 49.34117879 -14.703125 49.2421875 C-15.49510788 49.2393576 -16.28709076 49.23652771 -17.10307312 49.23361206 C-19.61965374 49.22246363 -22.13587164 49.19736922 -24.65234375 49.171875 C-26.36392713 49.16183829 -28.07551612 49.15271364 -29.78710938 49.14453125 C-33.97149281 49.12254181 -38.15560689 49.08804908 -42.33984375 49.046875 C-42.37048041 46.52464547 -42.39266226 44.00279643 -42.41015625 41.48046875 C-42.41958252 40.77547241 -42.42900879 40.07047607 -42.4387207 39.34411621 C-42.4939402 28.68982168 -40.37834841 19.27571501 -33.33984375 11.046875 C-24.19562193 1.90265318 -12.42954362 -0.10885358 0 0 Z " fill="#000000" transform="translate(453.33984375,310.953125)"/>
<path d="M0 0 C6.2986875 -0.10164192 12.59716253 -0.17156661 18.89648438 -0.21972656 C21.03816634 -0.23980888 23.1797937 -0.26708037 25.32128906 -0.30175781 C28.40443415 -0.35042398 31.48685262 -0.3730029 34.5703125 -0.390625 C35.52366486 -0.41127014 36.47701721 -0.43191528 37.45925903 -0.45318604 C43.17264764 -0.45510296 46.4866333 0.14101391 51 4 C55.81564681 9.21695071 57.25972483 13.56013102 57.1953125 20.61328125 C57.18886719 21.86044922 57.18242187 23.10761719 57.17578125 24.39257812 C57.15902344 25.68615234 57.14226562 26.97972656 57.125 28.3125 C57.11597656 29.62541016 57.10695313 30.93832031 57.09765625 32.29101562 C57.07411797 35.52752913 57.0412352 38.76367149 57 42 C43.03681415 44.50427388 26.40899797 45.13856005 14.16796875 37.15234375 C6.32497901 30.82512948 2.57074908 23.37114618 1.3671875 13.42163086 C1.19664315 11.81170861 1.03267424 10.20107739 0.875 8.58984375 C0.78863281 7.76093628 0.70226562 6.93202881 0.61328125 6.07800293 C0.40307657 4.05259325 0.20072855 2.02637076 0 0 Z " fill="#000000" transform="translate(404,104)"/>
<path d="M0 0 C15.8517356 -0.49603377 26.5359136 0.37699856 38.65234375 11.51953125 C47.24042092 20.50095546 48.50272227 30.60388556 48.25537109 42.49682617 C48.18769482 44.66516562 48.09636998 46.83274624 48 49 C43.12535909 49.07443657 38.25105272 49.12873667 33.37597656 49.16479492 C31.71934237 49.17983465 30.06274769 49.20027177 28.40625 49.22631836 C26.0181297 49.26291515 23.63053812 49.27977439 21.2421875 49.29296875 C20.14026566 49.31619453 20.14026566 49.31619453 19.01608276 49.33988953 C13.38433962 49.34171183 9.27228098 48.13889761 5.13671875 44.24609375 C4.65847656 43.64925781 4.18023437 43.05242187 3.6875 42.4375 C3.19636719 41.83808594 2.70523437 41.23867188 2.19921875 40.62109375 C-0.58606561 36.85596994 -0.12673627 33.21275225 -0.09765625 28.7109375 C-0.0962413 27.89251373 -0.09482635 27.07408997 -0.09336853 26.23086548 C-0.0877629 23.61220675 -0.07520948 20.99363296 -0.0625 18.375 C-0.05748572 16.60156373 -0.05292269 14.82812613 -0.04882812 13.0546875 C-0.03779164 8.70309218 -0.02052325 4.3515605 0 0 Z " fill="#000000" transform="translate(0,311)"/>
<path d="M0 0 C1.19221916 0.00212242 1.19221916 0.00212242 2.40852356 0.00428772 C4.9455645 0.00988247 7.482517 0.02243397 10.01953125 0.03515625 C11.7402331 0.04017193 13.46093633 0.04473472 15.18164062 0.04882812 C19.39847155 0.05985018 23.61523641 0.07711119 27.83203125 0.09765625 C27.86268711 2.2993905 27.88435295 4.50125084 27.90234375 6.703125 C27.91539551 7.92926514 27.92844727 9.15540527 27.94189453 10.41870117 C27.59632193 21.9907757 23.40342557 30.86712482 15.20703125 38.91015625 C6.96095164 45.73176913 -4.03509188 47.14125862 -14.38671875 47.11328125 C-16.0099707 47.10989746 -16.0099707 47.10989746 -17.66601562 47.10644531 C-18.49166016 47.10354492 -19.31730469 47.10064453 -20.16796875 47.09765625 C-20.26735002 42.24135207 -20.33967669 37.3856486 -20.38769531 32.52856445 C-20.40772672 30.87871988 -20.43496017 29.22894555 -20.46972656 27.5793457 C-20.51862232 25.19855351 -20.54102155 22.81870525 -20.55859375 20.4375 C-20.57923889 19.70804672 -20.59988403 18.97859344 -20.62115479 18.22703552 C-20.62351722 12.75188968 -19.26052164 9.62583526 -16.16796875 5.09765625 C-10.96734423 0.27756523 -6.84665291 -0.04577565 0 0 Z " fill="#000000" transform="translate(20.16796875,103.90234375)"/>
<path d="M0 0 C3.01113945 1.27537931 3.80962762 2.31679384 6 5 C7.05315925 8.08020771 7.34756073 10.76369679 7 14 C4.98121428 18.11234128 3.24153376 20.32979898 -1 22 C-5.95611122 22.42556948 -9.19650728 21.65591243 -13.0625 18.5 C-15.36401997 15.18357365 -15.65448792 12.09049499 -15.43359375 8.12109375 C-14.78656435 4.95589587 -13.31896482 3.18255512 -11 1 C-7.49759552 -0.75120224 -3.82168145 -0.54503846 0 0 Z " fill="#000000" transform="translate(397,221)"/>
<path d="M0 0 C3.01113945 1.27537931 3.80962762 2.31679384 6 5 C7.05315925 8.08020771 7.34756073 10.76369679 7 14 C4.98121428 18.11234128 3.24153376 20.32979898 -1 22 C-5.95611122 22.42556948 -9.19650728 21.65591243 -13.0625 18.5 C-15.36401997 15.18357365 -15.65448792 12.09049499 -15.43359375 8.12109375 C-14.78656435 4.95589587 -13.31896482 3.18255512 -11 1 C-7.49759552 -0.75120224 -3.82168145 -0.54503846 0 0 Z " fill="#000000" transform="translate(72,221)"/>
</svg>
