<?xml version="1.0" encoding="UTF-8"?>
<svg version="1.1" xmlns="http://www.w3.org/2000/svg" width="512" height="512">
<path d="M0 0 C0.94617188 0.83402344 1.89234375 1.66804688 2.8671875 2.52734375 C3.71023438 3.24792969 4.55328125 3.96851563 5.421875 4.7109375 C10.37455582 8.98825275 14.6641199 13.52287989 18.8671875 18.52734375 C19.67800781 19.43871094 20.48882812 20.35007812 21.32421875 21.2890625 C59.80447912 64.83085466 74.06536064 120.95408106 70.66503906 177.91357422 C70.11465239 184.19525155 69.12654124 190.35133498 67.8671875 196.52734375 C67.67914551 197.46481445 67.49110352 198.40228516 67.29736328 199.36816406 C62.94505664 220.27447076 55.40699659 240.09237039 44.91503906 258.69262695 C44.51510742 259.40765381 44.11517578 260.12268066 43.703125 260.859375 C43.34782715 261.47530518 42.9925293 262.09123535 42.62646484 262.72583008 C41.60826698 264.81584611 41.60826698 264.81584611 41.8671875 268.52734375 C43.75847116 270.99792545 43.75847116 270.99792545 46.38247681 273.48327637 C46.8682697 273.96825356 47.35406258 274.45323075 47.85457647 274.95290422 C49.48963006 276.58047932 51.13851475 278.193291 52.78759766 279.80664062 C53.96101131 280.96910585 55.13350557 282.13249976 56.30514526 283.29675293 C58.83367036 285.8058288 61.3681743 288.30865112 63.90730667 290.80699158 C67.92810991 294.76418438 71.93257071 298.73763954 75.93441772 302.71398926 C85.88334037 312.5947087 95.85048466 322.45699389 105.82775879 332.30908203 C113.56945135 339.95365867 121.30454536 347.6046326 129.01870191 355.27700853 C132.98852477 359.22388723 136.97178433 363.15650234 140.96593785 367.07874966 C143.4603887 369.53455188 145.94199711 372.00303313 148.42036819 374.47505188 C149.56391082 375.61062047 150.71256421 376.74107165 151.86690521 377.86566162 C161.43858643 387.19964313 168.82646881 396.87517121 169.15966797 410.72094727 C169.26302162 422.95070928 167.0179297 432.9773325 158.8671875 442.52734375 C148.92025417 452.19892944 138.12333393 455.94437978 124.41796875 455.8046875 C114.79322201 455.0529196 107.04663657 451.84332874 99.8671875 445.52734375 C99.15063807 444.89777802 98.43408863 444.2682123 97.69582558 443.61956882 C91.18386872 437.82165436 84.97006754 431.76703471 78.81787109 425.59155273 C77.75258539 424.52598416 76.68707787 423.46063731 75.62136841 422.39549255 C72.76030555 419.53471379 69.90231221 416.67088695 67.04490614 413.80645633 C64.04653041 410.80178199 61.04527699 407.79998473 58.04434204 404.79786682 C52.37610685 399.12653735 46.71042314 393.45266618 41.04567683 387.77785212 C34.59048907 381.31144376 28.13242372 374.84791251 21.67412829 368.38460815 C8.40196862 355.10202724 -4.86661605 341.81588039 -18.1328125 328.52734375 C-20.05870795 329.64883412 -21.98436142 330.77074006 -23.90991211 331.89282227 C-25.51847328 332.82989769 -25.51847328 332.82989769 -27.15953064 333.78590393 C-29.34969782 335.06867647 -31.53000945 336.36215556 -33.69921875 337.6796875 C-61.48658239 354.23617405 -94.83816735 363.57871433 -127.1328125 364.52734375 C-128.37933594 364.56730469 -129.62585938 364.60726563 -130.91015625 364.6484375 C-186.99913132 365.83483193 -239.91259102 344.89690825 -280.48046875 306.43359375 C-315.57865322 272.56028247 -342.06905749 222.85210299 -343.29394531 173.1887207 C-343.31350105 171.631082 -343.32724756 170.07336222 -343.3359375 168.515625 C-343.34299713 167.67350967 -343.35005676 166.83139435 -343.35733032 165.96376038 C-343.58457223 130.89161493 -343.58457223 130.89161493 -340.1328125 115.52734375 C-339.94477051 114.6465918 -339.75672852 113.76583984 -339.56298828 112.85839844 C-327.77679973 58.94385257 -295.09943835 12.41301279 -249.11425781 -17.79882812 C-172.1014481 -66.98943218 -69.05999945 -60.43024785 0 0 Z M-232.1328125 55.52734375 C-233.02613281 56.33816406 -233.91945312 57.14898437 -234.83984375 57.984375 C-257.60004167 79.59760231 -273.58827384 112.76246636 -275.33764648 144.20947266 C-275.43633138 148.21261434 -275.46678391 152.21092661 -275.4453125 156.21484375 C-275.44348969 156.92044434 -275.44166687 157.62604492 -275.43978882 158.35302734 C-275.39340179 169.02174065 -274.88655889 179.16485232 -272.1328125 189.52734375 C-271.96120605 190.17977051 -271.78959961 190.83219727 -271.61279297 191.50439453 C-265.99722494 212.33569291 -256.39099105 231.29649251 -242.1328125 247.52734375 C-241.10607422 248.75324219 -241.10607422 248.75324219 -240.05859375 250.00390625 C-218.54517315 275.05650326 -186.84160946 291.40528587 -154.1328125 295.52734375 C-152.84310547 295.69169922 -152.84310547 295.69169922 -151.52734375 295.859375 C-116.32805647 299.66882167 -79.54219256 289.8801833 -51.6328125 267.90234375 C-49.44511029 266.13384741 -47.28812432 264.33582379 -45.1328125 262.52734375 C-44.34003906 261.87636719 -43.54726563 261.22539062 -42.73046875 260.5546875 C-38.03765481 256.60047383 -34.00644119 252.28026239 -30.1328125 247.52734375 C-29.34777344 246.56828125 -28.56273437 245.60921875 -27.75390625 244.62109375 C-21.67393377 237.04251175 -16.60762216 229.15633079 -12.1328125 220.52734375 C-11.82214844 219.93195801 -11.51148438 219.33657227 -11.19140625 218.72314453 C-6.20538497 209.0197004 -2.68931116 199.12781142 -0.1328125 188.52734375 C0.03234863 187.84929687 0.19750977 187.17125 0.36767578 186.47265625 C4.89031085 166.94160759 4.90774138 144.95136495 -0.1328125 125.52734375 C-0.33148926 124.73956543 -0.53016602 123.95178711 -0.73486328 123.14013672 C-3.82671332 111.17340326 -8.03621914 100.27568975 -14.1328125 89.52734375 C-14.46571289 88.93840332 -14.79861328 88.34946289 -15.14160156 87.74267578 C-19.50638691 80.12883468 -24.42129282 73.18175188 -30.1328125 66.52734375 C-30.84308594 65.69460937 -31.55335938 64.861875 -32.28515625 64.00390625 C-41.11962806 53.91180313 -50.92713868 45.81438672 -62.1328125 38.52734375 C-63.05449219 37.92019531 -63.97617187 37.31304687 -64.92578125 36.6875 C-117.97600977 3.69010821 -187.3154447 14.11706124 -232.1328125 55.52734375 Z " fill="#FFFFFF" transform="translate(343.1328125,53.47265625)"/>
</svg>
