<?xml version="1.0" encoding="UTF-8"?>
<svg version="1.1" xmlns="http://www.w3.org/2000/svg" width="512" height="512">
<path d="M0 0 C1.43368423 -0.00503792 1.43368423 -0.00503792 2.89633179 -0.01017761 C6.03148731 -0.01961526 9.166589 -0.02162713 12.30175781 -0.02270508 C14.49977642 -0.02592277 16.69779482 -0.02928722 18.89581299 -0.03279114 C23.49532568 -0.03876454 28.09481964 -0.04063289 32.69433594 -0.04003906 C38.55905451 -0.03993757 44.42365167 -0.0535844 50.28834152 -0.07081127 C54.82680808 -0.08198472 59.36524578 -0.08395663 63.90372467 -0.08342934 C66.06444975 -0.08460161 68.22517576 -0.08898061 70.38588715 -0.0967617 C95.74606402 -0.17953741 118.44107393 2.8613433 137.35644531 21.46948242 C138.23042969 22.35249023 139.10441406 23.23549805 140.00488281 24.14526367 C140.67261719 24.79108398 141.34035156 25.4369043 142.02832031 26.10229492 C157.59027425 42.26278555 160.15092171 64.11723508 160.16601562 85.46801758 C160.17065188 87.00476702 160.1756776 88.54151532 160.18106079 90.07826233 C160.19410074 94.22889306 160.20061207 98.37950768 160.20507145 102.53015566 C160.2080131 105.12649403 160.2121197 107.72282809 160.21657562 110.31916428 C160.23022237 118.45259441 160.23990534 126.58601458 160.24377751 134.71945536 C160.24826503 144.09152241 160.26585682 153.46344412 160.29477811 162.83546698 C160.31640052 170.09514876 160.32648193 177.35478963 160.32781863 184.61450326 C160.32886536 188.94455282 160.33474618 193.27446522 160.35263824 197.60448074 C160.36913083 201.67410129 160.37126876 205.74348162 160.36249924 209.8131237 C160.36172976 211.30342567 160.36605983 212.79374064 160.37595749 214.28400993 C160.46416112 228.39518565 160.46416112 228.39518565 157.00488281 234.14526367 C151.35234089 239.64905449 145.9911877 240.44187602 138.33317566 240.41268921 C137.02441395 240.41948588 137.02441395 240.41948588 135.68921262 240.42641985 C132.76598046 240.43907868 129.84293427 240.43744252 126.91967773 240.43579102 C124.82357036 240.44177535 122.72746518 240.44858067 120.63136292 240.45614624 C114.9370768 240.47382343 109.24285078 240.47850236 103.54853988 240.47977781 C98.79460366 240.48167683 94.04068144 240.48903443 89.28675061 240.496122 C78.06998473 240.51241021 66.85325096 240.51729057 55.63647461 240.51586914 C44.06723724 240.51466768 32.49818642 240.53576945 20.92899626 240.56735647 C10.99508575 240.59351187 1.06123619 240.60423674 -8.8727085 240.60295832 C-14.8052642 240.60244846 -20.73765415 240.60814516 -26.67017555 240.62931442 C-32.25082582 240.64868416 -37.83115201 240.64882971 -43.41181374 240.63428116 C-45.4580228 240.63219039 -47.50425208 240.63690989 -49.55042648 240.64900208 C-52.34815068 240.66446248 -55.14475856 240.65514105 -57.94245911 240.63973999 C-58.74840871 240.65002712 -59.55435832 240.66031424 -60.38473064 240.6709131 C-66.0127496 240.60264883 -70.27736486 239.25813869 -74.99511719 236.14526367 C-79.7592552 231.25896828 -80.11904865 227.42882779 -80.12882996 220.79139709 C-80.13522743 218.82979645 -80.13522743 218.82979645 -80.14175415 216.8285675 C-80.14140463 215.38082883 -80.1409431 213.93309017 -80.14038086 212.48535156 C-80.14337351 210.95907509 -80.14677628 209.43279938 -80.15055847 207.90652466 C-80.15939709 203.75932265 -80.16173667 199.61214128 -80.16237426 195.46493077 C-80.16308544 192.86974514 -80.16522116 190.27456475 -80.16787148 187.67938042 C-80.17712809 178.61291039 -80.18120642 169.54645506 -80.18041992 160.47998047 C-80.17982072 152.05159237 -80.19034076 143.6232686 -80.20616359 135.19489676 C-80.21928576 127.94456371 -80.22460178 120.69425154 -80.22396451 113.44390672 C-80.22371067 109.12033258 -80.22649782 104.79681548 -80.23714256 100.47325325 C-80.24690117 96.39797223 -80.24685015 92.3228018 -80.23962593 88.24751663 C-80.23858929 86.7613566 -80.24088741 85.2751894 -80.24698639 83.78904152 C-80.33833709 59.96270421 -75.07745627 39.50461366 -57.99511719 22.14526367 C-57.18494141 21.2094043 -57.18494141 21.2094043 -56.35839844 20.25463867 C-42.42185131 4.66817286 -19.92409537 -0.01023393 0 0 Z " fill="#FB8DFF" transform="translate(215.9951171875,233.854736328125)"/>
<path d="M0 0 C22.91823523 -0.60410505 45.18388333 7.14185852 62.12109375 22.625 C64.01117879 24.42705878 65.84709001 26.26679459 67.68359375 28.125 C68.42222656 28.85332031 69.16085937 29.58164063 69.921875 30.33203125 C86.27019879 47.44221868 92.25502297 70.19327438 92.17114258 93.23242188 C91.59890869 117.13908225 81.63004299 137.70651709 65.14453125 154.75 C45.56787926 173.14583806 21.56218018 180.0439774 -4.81298828 179.26123047 C-27.62427138 178.0198909 -48.53300791 166.48781583 -64.07421875 150.2421875 C-74.01284933 138.84467537 -80.32501684 126.65180099 -84.31640625 112.125 C-84.50187012 111.46129395 -84.68733398 110.79758789 -84.87841797 110.11376953 C-90.63989186 87.4122261 -85.78884216 63.11763164 -74.31640625 43.125 C-60.43838964 21.3421058 -40.13572413 7.34919215 -15.0859375 1.6484375 C-10.0590616 0.69836505 -5.10100401 0.27526497 0 0 Z " fill="#FC8DFF" transform="translate(253.31640625,37.875)"/>
<path d="M0 0 C6.82766662 -0.10263843 13.65512958 -0.17197643 20.48339844 -0.21972656 C22.79922926 -0.2396629 25.11501095 -0.26682197 27.43066406 -0.30175781 C43.94489967 -0.54440432 59.38310501 -0.29961342 74.3125 7.6875 C74.97000244 8.02998779 75.62750488 8.37247559 76.30493164 8.7253418 C94.3357981 18.4572989 105.87919515 34.4059007 112.01953125 53.58203125 C113.8043652 59.80406194 114.15829866 65.38920262 114.17700195 71.83227539 C114.18357315 72.81834778 114.19014435 73.80442017 114.19691467 74.82037354 C114.21660221 78.07946862 114.22830181 81.33851766 114.23828125 84.59765625 C114.24235678 85.714447 114.2464323 86.83123775 114.25063133 87.98187065 C114.27147531 93.89603362 114.28578282 99.81017351 114.29516602 105.72436523 C114.30621119 111.81137154 114.34059447 117.89801038 114.38033772 123.98488712 C114.40657502 128.68373765 114.41486431 133.38250166 114.41844749 138.08141899 C114.42329707 140.32393302 114.43486412 142.56644361 114.45348549 144.80888557 C114.58886041 162.1953704 113.7269361 174.56133687 101.4375 187.75 C88.09219237 200.0687455 74.37826855 201.32257058 56.83203125 201.1953125 C55.30075772 201.19157351 53.76948176 201.18873073 52.23820496 201.18673706 C48.24503756 201.17917026 44.25202007 201.15958321 40.25891113 201.1373291 C36.16937283 201.11671918 32.07980985 201.10770325 27.99023438 201.09765625 C19.99342146 201.07632936 11.99672948 201.04227954 4 201 C4.16210339 199.83008798 4.32420677 198.66017595 4.49122238 197.45481205 C4.97963638 193.52966791 5.13078432 189.68194842 5.14044189 185.7230072 C5.14341302 185.03663494 5.14638414 184.35026268 5.1494453 183.64309126 C5.15804335 181.36743546 5.15963293 179.0918328 5.16113281 176.81616211 C5.16576737 175.17431529 5.17079288 173.53246953 5.17617798 171.890625 C5.18924423 167.44601883 5.19573584 163.00142773 5.20018864 158.55680537 C5.20312927 155.7733018 5.20723595 152.98980226 5.21169281 150.20630074 C5.22535376 141.47804597 5.23502675 132.74980052 5.2388947 124.02153581 C5.24336937 113.98224675 5.26089573 103.94309425 5.2898953 93.90384668 C5.31159078 86.12007307 5.32160319 78.33633766 5.32293582 70.55253416 C5.32397841 65.91481577 5.32976866 61.27722599 5.34775543 56.63953972 C5.36437238 52.27032957 5.3663264 47.90134283 5.35761642 43.53211212 C5.35685322 41.94035552 5.36109245 40.34858622 5.37107468 38.75686073 C5.43198391 28.42773029 4.38160007 19.06783529 2 9 C1.60273844 7.1878125 1.20667667 5.37536101 0.8125 3.5625 C0.544375 2.386875 0.27625 1.21125 0 0 Z " fill="#FC8DFF" transform="translate(398,273)"/>
<path d="M0 0 C1.10131256 0.00141495 2.20262512 0.0028299 3.33731079 0.00428772 C6.84208942 0.00986873 10.3468033 0.02241779 13.8515625 0.03515625 C16.23307199 0.0401737 18.61458249 0.04473618 20.99609375 0.04882812 C26.82293862 0.05983194 32.64974593 0.07655118 38.4765625 0.09765625 C38.06083984 1.81662109 38.06083984 1.81662109 37.63671875 3.5703125 C37.27066711 5.10022065 36.90479103 6.63017082 36.5390625 8.16015625 C36.35666016 8.91232422 36.17425781 9.66449219 35.98632812 10.43945312 C35.72045898 11.55610352 35.72045898 11.55610352 35.44921875 12.6953125 C35.20570679 13.70863647 35.20570679 13.70863647 34.95727539 14.74243164 C33.82656573 20.28227728 33.35131156 25.65141631 33.34957886 31.30149841 C33.34801887 31.99195521 33.34645888 32.68241201 33.34485161 33.39379174 C33.34088852 35.68890097 33.34401297 37.98394311 33.34716797 40.27905273 C33.34581183 41.93210895 33.34403071 43.58516487 33.34185791 45.23822021 C33.3373085 49.71548035 33.33906299 54.19271738 33.342237 58.6699779 C33.34477389 63.36275465 33.34241931 68.05552945 33.34085083 72.74830627 C33.33903284 80.62916416 33.34142555 88.51001268 33.34619141 96.39086914 C33.35163142 105.49138817 33.34987176 114.59188478 33.344365 123.69240326 C33.33982107 131.51596119 33.33918965 139.33951239 33.34180367 147.16307122 C33.34335964 151.83127177 33.3435789 156.4994618 33.34026718 161.16766167 C33.33736995 165.55811991 33.33939815 169.94854937 33.34516144 174.33900452 C33.34647919 175.94659439 33.34611171 177.5541867 33.34389877 179.16177559 C33.34114836 181.3634928 33.34461561 183.56511897 33.34957886 185.76683044 C33.34995588 186.99662848 33.35033291 188.22642653 33.35072136 189.49349117 C33.48804925 193.42664367 33.9352473 197.20132431 34.4765625 201.09765625 C25.67007549 201.14421706 16.86363157 201.17964517 8.05704784 201.20128059 C3.96677964 201.21167012 -0.12340368 201.22573984 -4.21362305 201.24853516 C-8.16883351 201.27043741 -12.12396288 201.2822611 -16.07922935 201.28741074 C-17.5801286 201.29107556 -19.08102395 201.298231 -20.5818882 201.30911636 C-35.51589874 201.41301511 -48.66169049 200.14782692 -60.8984375 190.72265625 C-70.06331238 181.55778137 -75.68630354 170.92217286 -75.81671143 157.85682678 C-75.81580505 156.94243332 -75.81489868 156.02803986 -75.81396484 155.0859375 C-75.82068207 154.10439194 -75.82739929 153.12284637 -75.83432007 152.11155701 C-75.85326112 148.87770468 -75.85722306 145.64406055 -75.859375 142.41015625 C-75.86580823 140.14680905 -75.87253698 137.88346267 -75.87954712 135.62011719 C-75.89151206 130.87579423 -75.895229 126.13154401 -75.89404297 121.38720703 C-75.89384043 115.34312251 -75.92107918 109.2995116 -75.95558739 103.25553894 C-75.97796389 98.57800203 -75.98187714 93.90057687 -75.98082352 89.22299194 C-75.98316576 86.99692156 -75.99191053 84.77084743 -76.00748825 82.54483032 C-76.16561139 57.60381959 -70.64908417 38.37625603 -53.37109375 19.78125 C-38.8060278 5.92138277 -19.74177604 -0.09587927 0 0 Z " fill="#FC8DFF" transform="translate(75.5234375,272.90234375)"/>
<path d="M0 0 C11.77511009 9.79193365 18.80676411 20.61905003 23.59765625 35.16015625 C23.84515625 35.88332031 24.09265625 36.60648438 24.34765625 37.3515625 C28.72202136 52.87448315 25.56395384 70.86470194 18.41015625 84.97265625 C8.32396319 102.2602202 -6.17686476 113.7673127 -25.58984375 119.03515625 C-43.2102641 122.58046974 -60.83432297 120.18622454 -76.4375 111.140625 C-81.24035951 107.93239078 -85.34976615 104.2614762 -89.40234375 100.16015625 C-90.11132812 99.47308594 -90.8203125 98.78601563 -91.55078125 98.078125 C-102.97092207 86.28606389 -108.43693065 69.73562056 -108.83984375 53.53515625 C-108.22224854 33.95738798 -101.00661781 16.7118305 -86.7890625 3.13671875 C-61.74012525 -17.60757298 -26.41437084 -20.3333646 0 0 Z " fill="#FC8DFF" transform="translate(453.40234375,134.83984375)"/>
<path d="M0 0 C12.58962683 11.78649546 19.58875791 28.02459783 20.65625 45.125 C20.9534818 66.10461142 14.02053726 82.79417663 -0.171875 98.05859375 C-14.00658136 111.40526599 -31.86252811 116.4646519 -50.73828125 116.14453125 C-67.87355517 115.45129565 -83.33410961 107.78644019 -95.546875 95.87109375 C-108.62936306 81.13521068 -114.53252539 63.89893147 -113.890625 44.36328125 C-112.73302615 25.00657482 -103.19683735 9.52533282 -89.26171875 -3.21875 C-62.34835654 -25.54072193 -25.70509672 -21.48662226 0 0 Z " fill="#FC8DFF" transform="translate(146.546875,139.12890625)"/>
</svg>
