<?xml version="1.0" encoding="UTF-8"?>
<svg version="1.1" xmlns="http://www.w3.org/2000/svg" width="512" height="512">
<path d="M0 0 C22.77 0 45.54 0 69 0 C69 17.49 69 34.98 69 53 C72.96 53.33 76.92 53.66 81 54 C108.28893952 58.36311381 135.68134948 66.89423209 159 82 C158.09838827 86.2090431 156.04913768 89.41495648 153.75 93 C153.08943604 94.04353638 153.08943604 94.04353638 152.41552734 95.1081543 C148.32607681 101.54588279 144.15756917 107.93298035 139.98852539 114.31933594 C134.22895543 123.1518706 128.60438684 132.06843832 123 141 C119.57735199 139.68906124 116.28582097 138.19316207 112.99121094 136.58911133 C78.76008298 120.05123122 37.59826572 116.47848138 1.3125 128.3125 C-10.96402396 133.09651713 -20.63848754 140.35000128 -27 152 C-30.62988008 160.97570348 -29.32620736 172.132486 -25.93359375 181.01171875 C-18.5466048 196.74384167 0.79021473 203.52237644 16.06469727 209.22192383 C28.05090708 213.53217322 40.25724483 217.17399456 52.42803955 220.92059326 C97.77751024 234.88779507 143.69527221 251.18185576 167.76953125 295.23828125 C176.12222446 312.21856643 179.40167062 330.3106184 179.375 349.125 C179.37412384 349.80531281 179.37324768 350.48562561 179.37234497 351.18655396 C179.25057612 379.92189602 169.16388266 402.54473175 149 423 C148.29359375 423.71929687 147.5871875 424.43859375 146.859375 425.1796875 C128.00968168 443.09409069 95.25385832 458 69 458 C69 475.82 69 493.64 69 512 C46.23 512 23.46 512 0 512 C0 493.85 0 475.7 0 457 C-5.94 455.68 -11.88 454.36 -18 453 C-21.02142854 452.16071429 -23.92762521 451.33275961 -26.875 450.3125 C-27.60001709 450.06467773 -28.32503418 449.81685547 -29.07202148 449.56152344 C-53.84372429 440.83005909 -75.83025387 427.97820798 -95 410 C-95.85658203 409.24009766 -95.85658203 409.24009766 -96.73046875 408.46484375 C-98.125 407.1875 -98.125 407.1875 -100 405 C-100 401 -100 401 -98.09375 398.66796875 C-97.2378125 397.84941406 -96.381875 397.03085937 -95.5 396.1875 C-94.58089844 395.30320312 -93.66179687 394.41890625 -92.71484375 393.5078125 C-89.90334526 390.91071606 -87.03818539 388.39626751 -84.12890625 385.91015625 C-81.48522293 383.53811746 -78.99336636 381.02739388 -76.5 378.5 C-72.81752055 374.76726495 -69.05185004 371.22052921 -65.04296875 367.83984375 C-61.58137913 364.72242747 -58.45594394 361.26439789 -55.296875 357.84375 C-53 356 -53 356 -50.87890625 356.03515625 C-48.78502672 357.11039169 -47.71341945 358.1509552 -46.1875 359.9375 C-33.39024797 373.22590456 -14.46264614 381.16751731 3 386 C3.70624512 386.19754883 4.41249023 386.39509766 5.14013672 386.59863281 C32.68607798 393.96592111 65.40458834 392.36514932 91 379.0625 C99.99209549 373.77381569 105.89184682 368.3348839 109 358 C110.81756942 345.34402122 109.39205472 332.60597083 101.6875 322.125 C82.5928765 299.78108133 48.82028102 293.13063654 21.97558594 284.95043945 C-5.74857911 276.47586069 -35.08698445 267.47823835 -58 249 C-58.99386719 248.23042969 -59.98773438 247.46085938 -61.01171875 246.66796875 C-83.40002394 228.83036048 -95.38357887 203.834253 -98.75 175.75 C-98.86085034 174.16835494 -98.94224585 172.58447258 -99 171 C-99.03996094 169.94941406 -99.07992187 168.89882812 -99.12109375 167.81640625 C-99.68852543 137.87604041 -89.53475445 112.2663628 -69.0625 90.6875 C-52.72648876 75.14675097 -23.46020382 57 0 57 C0 38.19 0 19.38 0 0 Z " fill="#000000" transform="translate(217,0)"/>
</svg>
