<?xml version="1.0" encoding="UTF-8"?>
<svg version="1.1" xmlns="http://www.w3.org/2000/svg" width="512" height="512">
<path d="M0 0 C4.64192657 2.15518019 8.03772177 5.22017992 10 10 C10.57730604 14.19483567 10.51940185 18.33483237 10.4375 22.5625 C10.41550537 24.37016846 10.41550537 24.37016846 10.39306641 26.21435547 C10.16880522 37.00317564 9.10823888 47.42252252 7 58 C6.80664062 58.97114746 6.61328125 59.94229492 6.4140625 60.94287109 C0.32475282 90.47320393 -10.97903053 119.60866892 -29 144 C-29.8871302 145.24449847 -30.77381536 146.48931425 -31.66015625 147.734375 C-38.73283936 157.53507608 -46.58103767 166.34438187 -55 175 C-55.75152344 175.79148437 -56.50304687 176.58296875 -57.27734375 177.3984375 C-62.45430229 182.7553721 -68.16348184 187.38293833 -74 192 C-75.51787109 193.22589844 -75.51787109 193.22589844 -77.06640625 194.4765625 C-84.95303058 200.77437362 -93.1975931 206.07648445 -102 211 C-102.76812012 211.4345752 -103.53624023 211.86915039 -104.32763672 212.31689453 C-125.77013575 224.34811534 -147.93635199 232.09905336 -172 237 C-173.21913086 237.26683594 -173.21913086 237.26683594 -174.46289062 237.5390625 C-201.82676784 243.38783015 -233.81790372 242.05583319 -261 236 C-261.8544873 235.81276367 -262.70897461 235.62552734 -263.58935547 235.43261719 C-269.13260699 234.17913442 -274.57083341 232.67658609 -280 231 C-280.77408203 230.76474609 -281.54816406 230.52949219 -282.34570312 230.28710938 C-303.17503344 223.83223105 -322.92692367 214.17441208 -341 202 C-341.03867187 203.19496094 -341.03867187 203.19496094 -341.078125 204.4140625 C-341.50616921 212.41070663 -342.56684758 216.7385052 -348.5 222.375 C-353.66500009 224.77303575 -358.4002288 224.75381535 -364 224 C-368.6413483 221.84508829 -372.07137126 218.79657214 -374 214 C-374.59970881 209.50120849 -374.56031934 205.03308099 -374.53125 200.5 C-374.5350769 199.19095703 -374.53890381 197.88191406 -374.54284668 196.53320312 C-374.54872605 193.76933804 -374.54023041 191.00599198 -374.52148438 188.2421875 C-374.49869442 184.71137169 -374.51182609 181.18177223 -374.53577423 177.65100098 C-374.55375956 174.26723823 -374.54114232 170.88379724 -374.53125 167.5 C-374.53934692 166.23736328 -374.54744385 164.97472656 -374.55578613 163.67382812 C-374.43716741 152.55929128 -374.43716741 152.55929128 -370 148 C-364.43007704 142.57927141 -357.80568987 143.42190073 -350.5 143.46875 C-349.19095703 143.4649231 -347.88191406 143.46109619 -346.53320312 143.45715332 C-343.76933804 143.45127395 -341.00599198 143.45976959 -338.2421875 143.47851562 C-334.71137169 143.50130558 -331.18177223 143.48817391 -327.65100098 143.46422577 C-324.26723823 143.44624044 -320.88379724 143.45885768 -317.5 143.46875 C-316.23736328 143.46065308 -314.97472656 143.45255615 -313.67382812 143.44421387 C-302.81981455 143.56005219 -302.81981455 143.56005219 -298 148 C-294.37166337 151.81930172 -293.68999542 154.88279006 -293.5 160 C-293.68999542 165.11720994 -294.37166337 168.18069828 -298 172 C-303.29841519 176.90103405 -309.11497054 176.77718351 -316 177 C-271.28079773 204.94234406 -219.62038819 212.87675351 -168.26074219 201.38720703 C-125.4315293 191.12686549 -87.26969622 165.10780049 -61 130 C-60.37351562 129.16855469 -59.74703125 128.33710938 -59.1015625 127.48046875 C-36.93423317 96.93534594 -24.35785521 60.15000423 -23.37744141 22.43994141 C-23.122064 14.25880833 -21.92849692 7.92849692 -16 2 C-11.12699681 -1.09329768 -5.5581384 -0.59604701 0 0 Z " fill="#FDACFF" transform="translate(470,240)"/>
<path d="M0 0 C1.43883545 0.30599121 1.43883545 0.30599121 2.90673828 0.61816406 C31.2912734 6.82940013 57.81699431 17.82524096 82 34 C82.99 34.66 83.98 35.32 85 36 C84.95359375 35.13117188 84.9071875 34.26234375 84.859375 33.3671875 C84.56457327 23.95458937 84.56457327 23.95458937 86.625 19.4375 C91.24147085 14.69954308 94.32278848 12.74791627 101 12.5 C106.11720994 12.68999542 109.18069828 13.37166337 113 17 C118.30101051 22.75454683 117.57940296 28.99101239 117.53125 36.5 C117.5350769 37.80904297 117.53890381 39.11808594 117.54284668 40.46679688 C117.54872605 43.23066196 117.54023041 45.99400802 117.52148438 48.7578125 C117.49869442 52.28862831 117.51182609 55.81822777 117.53577423 59.34899902 C117.55375956 62.73276177 117.54114232 66.11620276 117.53125 69.5 C117.53934692 70.76263672 117.54744385 72.02527344 117.55578613 73.32617188 C117.43716741 84.44070872 117.43716741 84.44070872 113 89 C107.43007704 94.42072859 100.80568987 93.57809927 93.5 93.53125 C92.19095703 93.5350769 90.88191406 93.53890381 89.53320312 93.54284668 C86.76933804 93.54872605 84.00599198 93.54023041 81.2421875 93.52148438 C77.71137169 93.49869442 74.18177223 93.51182609 70.65100098 93.53577423 C67.26723823 93.55375956 63.88379724 93.54114232 60.5 93.53125 C58.60604492 93.54339539 58.60604492 93.54339539 56.67382812 93.55578613 C45.81981455 93.43994781 45.81981455 93.43994781 41 89 C37.37166337 85.18069828 36.68999542 82.11720994 36.5 77 C36.74683844 70.35181813 38.64720879 67.23213525 43.4375 62.6875 C48.77620525 60.15863962 54.15643637 60.17339951 60 60 C13.45342879 33.1504412 -37.14848822 22.99375264 -90 36 C-90.70318359 36.16838379 -91.40636719 36.33676758 -92.13085938 36.51025391 C-140.42381054 48.37866768 -180.9156017 81.45463806 -206.88696289 123.07714844 C-223.57773364 150.6855462 -232.78504274 182.34633913 -233.62255859 214.56005859 C-233.877936 222.74119167 -235.07150308 229.07150308 -241 235 C-245.87300319 238.09329768 -251.4418616 237.59604701 -257 237 C-261.64192657 234.84481981 -265.03772177 231.77982008 -267 227 C-267.57730604 222.80516433 -267.51940185 218.66516763 -267.4375 214.4375 C-267.42283691 213.2323877 -267.40817383 212.02727539 -267.39306641 210.78564453 C-267.16880522 199.99682436 -266.10823888 189.57747748 -264 179 C-263.80664062 178.02885254 -263.61328125 177.05770508 -263.4140625 176.05712891 C-257.32475282 146.52679607 -246.02096947 117.39133108 -228 93 C-227.1128698 91.75550153 -226.22618464 90.51068575 -225.33984375 89.265625 C-218.70767934 80.07492685 -211.44574118 71.71137354 -203.54541016 63.59228516 C-202.2180971 62.22471237 -200.90983314 60.83869664 -199.60546875 59.44921875 C-193.32712101 52.89131564 -186.24313982 47.43721995 -179 42 C-178.43120117 41.57041992 -177.86240234 41.14083984 -177.27636719 40.69824219 C-149.64014266 19.95909969 -118.70352644 7.04452113 -85 0 C-84.17999512 -0.18079102 -83.35999023 -0.36158203 -82.51513672 -0.54785156 C-56.85414484 -6.02757091 -25.5958949 -5.53025112 0 0 Z " fill="#FDABFF" transform="translate(299,35)"/>
<path d="M0 0 C0.09347513 17.49815173 0.1639947 34.99622544 0.20724869 52.49456978 C0.22786682 60.61951167 0.25597297 68.74429836 0.30175781 76.86914062 C0.34164867 83.95143484 0.36743826 91.03361664 0.37635398 98.11602008 C0.38156498 101.86554499 0.39379668 105.61474832 0.42292023 109.36417007 C0.45518227 113.55168117 0.45595798 117.73863453 0.45410156 121.92626953 C0.46848267 123.16704758 0.48286377 124.40782562 0.49768066 125.686203 C0.46700184 132.06984296 0.39330171 136.19028198 -4 141 C-9.66014232 145.90631758 -17.41018638 148.59067331 -24.1875 151.5625 C-25.43271807 152.1140699 -26.67766273 152.66625737 -27.92236328 153.21899414 C-30.70938205 154.45548566 -33.49795589 155.6883832 -36.28759766 156.91894531 C-44.35135513 160.47747418 -52.40363563 164.06191991 -60.45797729 167.64169312 C-63.36997092 168.93526597 -66.28269282 170.22718685 -69.19555664 171.51879883 C-78.03741125 175.44180488 -86.87113002 179.38002202 -95.671875 183.39453125 C-96.40503937 183.72843369 -97.13820374 184.06233612 -97.89358521 184.40635681 C-101.26635819 185.94308827 -104.63626294 187.48557765 -108.00146484 189.03881836 C-109.15855957 189.56741455 -110.3156543 190.09601074 -111.5078125 190.640625 C-112.50441895 191.09985352 -113.50102539 191.55908203 -114.52783203 192.03222656 C-117 193 -117 193 -120 193 C-120 146.8 -120 100.6 -120 53 C-74.43046875 32.746875 -74.43046875 32.746875 -56.51074219 24.78808594 C-55.69005249 24.42356323 -54.86936279 24.05904053 -54.02380371 23.68347168 C-52.2667493 22.90305907 -50.50966713 22.12270896 -48.75256348 21.34240723 C-39.41647544 17.19586572 -30.08274637 13.04448534 -20.765625 8.85546875 C-20.06759766 8.5417482 -19.36957031 8.22802765 -18.65039062 7.90480042 C-15.46807247 6.47402891 -12.28695019 5.04072755 -9.10742188 3.60375977 C-8.03556641 3.12092529 -6.96371094 2.63809082 -5.859375 2.140625 C-4.47443848 1.51462402 -4.47443848 1.51462402 -3.06152344 0.87597656 C-1 0 -1 0 0 0 Z " fill="#FDABFF" transform="translate(384,191)"/>
<path d="M0 0 C3.61467341 1.56924248 7.22899546 3.13929269 10.84326172 4.70947266 C11.85220993 5.14747696 12.86115814 5.58548126 13.90068054 6.03675842 C24.00103757 10.42562967 34.0654507 14.89358382 44.125 19.375 C46.04308386 20.22854134 47.96121653 21.081973 49.87939453 21.93530273 C53.87096771 23.71114071 57.86233296 25.48744468 61.85351562 27.26416016 C71.19986341 31.42458873 80.54764869 35.58178343 89.89593506 39.737854 C92.82030317 41.03817897 95.74439222 42.3391299 98.66845703 43.64013672 C100.46385542 44.43850303 102.25926498 45.23684421 104.0546875 46.03515625 C104.86000916 46.39365158 105.66533081 46.75214691 106.49505615 47.12150574 C107.25191711 47.45789566 108.00877808 47.79428558 108.78857422 48.14086914 C109.43672089 48.42918106 110.08486755 48.71749298 110.75265503 49.01454163 C113.82664539 50.36248312 116.91485263 51.67779398 120 53 C120 99.2 120 145.4 120 193 C116.48640201 192.2972804 114.24108836 191.81349702 111.14819336 190.39624023 C110.4225116 190.06695023 109.69682983 189.73766022 108.94915771 189.39839172 C107.7812973 188.85894173 107.7812973 188.85894173 106.58984375 188.30859375 C105.76252747 187.93175949 104.93521118 187.55492523 104.08282471 187.16667175 C102.29803248 186.353136 100.51430506 185.53726098 98.73153687 184.71929932 C93.9768586 182.53803127 89.21437136 180.37391466 84.453125 178.20703125 C83.48694748 177.7667157 82.52076996 177.32640015 81.52531433 176.8727417 C73.17363929 173.06952169 64.79667666 169.32536475 56.40634155 165.6083374 C54.19572977 164.62864724 51.98604439 163.64689602 49.77661133 162.66455078 C43.39626033 159.82897827 37.01273795 157.00151142 30.61463928 154.20617676 C27.91629754 153.02563129 25.22126406 151.83765974 22.52676392 150.64837646 C20.6891519 149.84069649 18.84696682 149.04344579 17.00463867 148.24658203 C2.73959681 141.9392296 2.73959681 141.9392296 0 135 C-0.24609566 132.39946365 -0.24609566 132.39946365 -0.24050903 129.39385986 C-0.24325836 128.25245041 -0.24600769 127.11104095 -0.24884033 125.93504333 C-0.24164978 124.68707474 -0.23445923 123.43910614 -0.22705078 122.15332031 C-0.22734283 120.83600418 -0.22763489 119.51868805 -0.22793579 118.16145325 C-0.2285096 114.55224648 -0.21675074 110.94317265 -0.20278788 107.33399677 C-0.19028524 103.56102993 -0.18911039 99.78806004 -0.18673706 96.01507568 C-0.18052092 88.8717789 -0.16410829 81.72854333 -0.14403808 74.5852735 C-0.12168326 66.45233322 -0.1106867 58.31939 -0.10064721 50.18642664 C-0.07974218 33.45758192 -0.04456359 16.72879877 0 0 Z " fill="#FDABFF" transform="translate(128,191)"/>
<path d="M0 0 C1.89617448 0.84586659 3.79350518 1.68914534 5.69189453 2.5300293 C8.73936732 3.88044837 11.78589593 5.23272382 14.82901001 6.59294128 C26.79958499 11.94098802 38.85771119 17.08241714 50.91589355 22.22875977 C56.8396742 24.757304 62.75929935 27.29555712 68.6796875 29.83203125 C70.80433522 30.74176171 72.92900847 31.65143256 75.05371094 32.56103516 C81.61989589 35.37226204 88.18519544 38.18555122 94.75 41 C94.75 41.66 94.75 42.32 94.75 43 C72.90357731 52.88252721 51.03862334 62.71788878 29.04516602 72.26977539 C20.31773897 76.06760848 11.64945307 79.95884512 3.0390625 84.015625 C0.44298487 85.22548856 -2.15414039 86.43307192 -4.75164795 87.63986206 C-6.39902329 88.41308168 -8.04150218 89.1968328 -9.67852783 89.99172974 C-11.94091143 91.08997107 -14.21750516 92.15137699 -16.5 93.20703125 C-17.15447113 93.53717224 -17.80894226 93.86731323 -18.48324585 94.2074585 C-22.29494702 95.92251362 -24.81264588 96.14913821 -28.6953125 94.91308594 C-30.22525532 94.30402922 -31.74397367 93.66600287 -33.25 93 C-34.3009082 92.55795479 -34.3009082 92.55795479 -35.37304688 92.10697937 C-37.5571507 91.16621581 -39.71633729 90.1812822 -41.875 89.18359375 C-43.08697807 88.63078987 -43.08697807 88.63078987 -44.32344055 88.06681824 C-46.0613217 87.27393442 -47.79834455 86.4791671 -49.53457642 85.68267822 C-54.21995828 83.53416059 -58.91258103 81.40159373 -63.60546875 79.26953125 C-64.57050827 78.83090759 -65.53554779 78.39228394 -66.52983093 77.94036865 C-76.50320738 73.41607142 -86.52753103 69.01060032 -96.5625 64.625 C-99.93249701 63.15151069 -103.30232854 61.67764434 -106.671875 60.203125 C-107.88273521 59.67325233 -107.88273521 59.67325233 -109.11805725 59.13267517 C-121.19941517 53.83913473 -133.22740169 48.4254182 -145.25 43 C-145.25 42.34 -145.25 41.68 -145.25 41 C-141.16409366 39.24862522 -137.07815284 37.49733088 -132.9921875 35.74609375 C-132.36481564 35.47720274 -131.73744377 35.20831173 -131.09106064 34.93127251 C-122.97364166 31.4522238 -114.85576982 27.9742364 -106.73706055 24.49819946 C-104.44741141 23.51777727 -102.15786162 22.53712304 -99.8684082 21.5562439 C-94.53013104 19.26918148 -89.19132878 16.98339382 -83.84986115 14.70379066 C-67.56166724 7.75595057 -67.56166724 7.75595057 -51.3828125 0.55859375 C-49.99863533 -0.06475699 -48.61436327 -0.68789708 -47.22998047 -1.31079102 C-44.84880073 -2.3829029 -42.48636861 -3.47982855 -40.12548828 -4.59741211 C-24.82046413 -11.50017265 -14.32353952 -6.54111819 0 0 Z " fill="#FDABFF" transform="translate(281.25,136)"/>
</svg>
