<?xml version="1.0" encoding="UTF-8"?>
<svg version="1.1" xmlns="http://www.w3.org/2000/svg" width="512" height="512">
<path d="M0 0 C2.24008214 0.90819446 3.44150311 1.87020504 5.14559989 3.57585854 C5.74372353 4.1672403 6.34184717 4.75862206 6.95809577 5.36792449 C7.6069737 6.02468345 8.25585162 6.68144241 8.92439251 7.35810316 C9.62292947 8.05317859 10.32146643 8.74825402 11.04117118 9.46439234 C13.40051969 11.81574497 15.74893912 14.17772443 18.09762935 16.53971994 C19.79573389 18.23651732 21.49449708 19.93265575 23.19386487 21.62818796 C26.89759699 25.3265948 30.59661005 29.02965556 34.2915781 32.73681581 C39.78591156 38.24922847 45.28879646 43.753044 50.79349348 49.25510523 C60.05228596 58.50995257 69.30406948 67.7717768 78.55190639 77.03757036 C87.71108721 86.21449014 96.87335262 95.38831198 106.03977565 104.55799806 C106.60928922 105.12771785 107.17880279 105.69743764 107.76557435 106.28442166 C110.65775292 109.1776152 113.5499869 112.07075335 116.44224222 114.96387016 C136.93861979 135.46655231 157.42803021 155.97618413 177.91336422 176.4899 C197.8170721 196.4211521 217.72392207 216.34925735 237.6350439 236.27310312 C238.24857478 236.88702858 238.86210565 237.50095403 239.49422837 238.13348328 C245.65544893 244.29865933 251.81673352 250.46377138 257.97806504 256.62883653 C270.52988764 269.18826817 283.08128272 281.74812701 295.63241939 294.30824411 C296.20952618 294.88576277 296.78663297 295.46328143 297.38122784 296.05830065 C335.93246742 334.63715153 374.47370819 373.22599128 413.01346187 411.81631601 C412.07114626 412.92281778 411.12779714 414.02843944 410.18402462 415.13369882 C409.65881033 415.74948801 409.13359604 416.36527719 408.59246616 416.99972666 C404.89950526 421.24834936 400.90977121 425.22404784 396.95389156 429.22598398 C395.90133596 430.29528329 394.85420025 431.36994214 393.81229 432.44961679 C392.29486169 434.0215096 390.76189748 435.57657949 389.22439937 437.12881601 C388.3199609 438.05307382 387.41552242 438.97733164 386.48367672 439.92959726 C384.01346187 441.81631601 384.01346187 441.81631601 382.0670927 441.61970747 C379.70193558 440.69444525 378.47330524 439.64592369 376.68515377 437.84877146 C375.73031345 436.90011713 375.73031345 436.90011713 374.75618343 435.93229807 C374.06925914 435.23458795 373.38233486 434.53687784 372.67459469 433.818025 C371.94249279 433.08636118 371.21039089 432.35469736 370.45610408 431.60086191 C368.03575403 429.17842028 365.62620568 426.74552224 363.21658687 424.31240976 C361.54143968 422.63166796 359.86562933 420.95158688 358.18918209 419.27214182 C353.77668228 414.84818274 349.37326517 410.41528869 344.97165279 405.98050058 C340.479301 401.45747149 335.9784542 396.94291357 331.47830562 392.42764414 C322.64833709 383.56549232 313.82764504 374.69416646 305.01346187 365.81631601 C303.41146585 366.29521309 301.80960349 366.77455733 300.20779781 367.25409067 C299.31574642 367.52097759 298.42369503 367.78786451 297.50461178 368.06283892 C294.74416678 368.89776743 292.00205087 369.77958684 289.26346187 370.68350351 C278.11765866 374.29002301 267.02612611 377.48117298 255.51346187 379.69131601 C254.52604 379.88193613 253.53861812 380.07255625 252.52127437 380.26895273 C236.15800222 383.23506424 219.99677677 384.19409746 203.38846187 384.12881601 C202.42234981 384.1269932 201.45623775 384.12517038 200.46084957 384.12329233 C185.78624332 384.07675392 171.47169126 383.51423793 157.01346187 380.81631601 C156.0471484 380.64470957 155.08083492 380.47310312 154.08523922 380.29629648 C90.63013929 368.84921332 28.64573107 334.44797467 -10.98653813 282.81631601 C-11.98820944 281.55385655 -12.99089035 280.29219774 -13.99435063 279.03115976 C-27.98336681 261.29609581 -39.21332582 242.17366449 -48.98653813 221.81631601 C-49.41450688 220.92960215 -49.84247563 220.04288828 -50.28341313 219.12930429 C-52.65361141 213.81157776 -53.83342565 209.51885209 -51.98653813 203.81631601 C-50.33054922 199.67080162 -48.41266729 195.68631921 -46.42403813 191.69131601 C-45.87973149 190.58054697 -45.33542485 189.46977793 -44.77462406 188.32534922 C-27.08529297 152.53609788 -1.62197723 119.42165754 30.01346187 94.81631601 C30.67346187 94.15631601 31.33346187 93.49631601 32.01346187 92.81631601 C31.23450054 92.04845774 30.4555392 91.28059946 29.65297298 90.48947275 C22.32573342 83.26344302 15.01161914 76.02435909 7.71026115 68.77217615 C3.95581699 65.04386303 0.19684832 61.32035774 -3.57271977 57.60733164 C-7.20810255 54.02614149 -10.83125456 50.43299367 -14.44613095 46.83110941 C-15.82973682 45.4567662 -17.2177471 44.0868429 -18.61012097 42.72138346 C-20.55469592 40.81292716 -22.48323373 38.88957265 -24.40865727 36.96182382 C-24.99199833 36.39645914 -25.5753394 35.83109445 -26.17635746 35.24859751 C-27.75303288 33.65109384 -27.75303288 33.65109384 -29.98653813 30.81631601 C-29.51851568 26.20735328 -26.24552655 23.60765218 -23.12325688 20.48428476 C-22.24066952 19.59027712 -22.24066952 19.59027712 -21.34025212 18.67820871 C-20.09577603 17.4229402 -18.8473138 16.17161278 -17.59518071 14.92398203 C-15.67740391 13.00718009 -13.7819506 11.07003848 -11.88692875 9.13076914 C-10.67534062 7.91397603 -9.46249165 6.6984368 -8.24825688 5.48428476 C-7.68144703 4.90107965 -7.11463719 4.31787455 -6.53065129 3.71699655 C-2.51176829 -0.23224906 -2.51176829 -0.23224906 0 0 Z M99.01346187 159.81631601 C85.29948906 183.56774978 83.98812744 212.98109721 90.59939937 239.13418711 C99.06834119 269.7491504 119.28486889 295.13143345 146.79031734 310.83047617 C171.97510838 324.84544356 203.02402965 329.61995401 231.01346187 321.81631601 C241.78305718 318.48308663 241.78305718 318.48308663 252.01346187 313.81631601 C250.68574346 310.89834528 249.22030741 308.73708489 247.02347164 306.40884531 C246.41846325 305.76525568 245.81345485 305.12166605 245.19011287 304.4585737 C242.40394699 301.5562114 239.60880961 298.66329743 236.79495601 295.78775156 C235.31892475 294.26852255 233.85554817 292.73689264 232.40530758 291.193025 C230.30468393 288.95820214 228.16692357 286.76571096 226.01736812 284.57803476 C225.38045543 283.88546076 224.74354274 283.19288675 224.08732967 282.47932566 C221.20649304 279.62372798 219.35563638 277.91232041 215.21338253 277.61602915 C212.42953484 277.86429631 209.75752628 278.29552959 207.01346187 278.81631601 C187.93791349 280.36678754 170.89468829 272.43602929 155.82596187 261.50381601 C149.44656715 255.40794994 144.71010203 248.7663285 140.70096187 240.94131601 C140.37563472 240.31829599 140.05030758 239.69527597 139.71512203 239.05337656 C135.94428272 231.36380269 133.20539064 223.49339504 134.91580562 214.93350351 C136.42426581 206.73055347 137.33938944 198.82103601 132.52579097 191.57772959 C123.35390301 179.86356333 111.70687078 169.00748994 100.01346187 159.81631601 C99.68346187 159.81631601 99.35346187 159.81631601 99.01346187 159.81631601 Z " fill="#B0B0B0" transform="translate(52.986538127064705,35.1836839877069)"/>
<path d="M0 0 C0.9293335 0.69391846 0.9293335 0.69391846 1.87744141 1.40185547 C10.75333531 8.0747653 19.01593615 15.28773407 27 23 C27.62084473 23.59893066 28.24168945 24.19786133 28.88134766 24.81494141 C36.7900708 32.48610591 44.26320386 40.25969572 51 49 C52.19496094 50.50433594 52.19496094 50.50433594 53.4140625 52.0390625 C66.67017216 68.81878488 77.19052496 86.93138445 86.5625 106.125 C86.99240234 106.98947754 87.42230469 107.85395508 87.86523438 108.74462891 C90.5173892 114.29366991 93.11319724 119.7423449 91.47631836 126.00292969 C90.65315993 128.17215776 89.70792465 130.22887981 88.6875 132.3125 C88.32285645 133.08811279 87.95821289 133.86372559 87.58251953 134.6628418 C86.4127077 137.12122433 85.21012635 139.56124234 84 142 C83.43611572 143.16015625 83.43611572 143.16015625 82.86083984 144.34375 C73.77236873 162.9368382 62.21797611 180.09764123 49 196 C48.30124756 196.85102295 48.30124756 196.85102295 47.58837891 197.71923828 C20.40042118 230.73647067 20.40042118 230.73647067 11 232 C8.58353995 230.10576565 6.52935345 228.24287747 4.37963867 226.07421875 C3.72395905 225.4321196 3.06827942 224.79002045 2.39273071 224.12846375 C0.22126507 221.99440678 -1.93095944 219.84209922 -4.08203125 217.6875 C-5.58034978 216.20016288 -7.07919199 214.71335314 -8.57853699 213.22705078 C-11.721765 210.10476276 -14.85496147 206.97279413 -17.98217773 203.83447266 C-21.99342234 199.81154264 -26.03345769 195.81898613 -30.08223438 191.83387756 C-33.18702866 188.76964661 -36.27325262 185.68722789 -39.35443687 182.59927368 C-40.83654321 181.11937674 -42.32502152 179.64583327 -43.81986427 178.17880249 C-45.90838325 176.12471712 -47.9699463 174.0468499 -50.02661133 171.9609375 C-50.96232719 171.05658211 -50.96232719 171.05658211 -51.91694641 170.13395691 C-53.52276679 168.47556123 -54.85835539 167.00661897 -56 165 C-55.92973328 161.28198242 -55.92973328 161.28198242 -55 158 C-54.70222656 156.85402344 -54.40445313 155.70804688 -54.09765625 154.52734375 C-53.75605469 153.34269531 -53.41445313 152.15804687 -53.0625 150.9375 C-44.68628987 120.49232394 -49.60653551 89.30471217 -65 62 C-81.36464218 35.17641296 -107.57231182 16.47408871 -138 9 C-146.35063816 7.09128271 -154.44790243 6.61423409 -163 6.625 C-164.90616089 6.62632935 -164.90616089 6.62632935 -166.85083008 6.62768555 C-179.28961537 6.78282583 -190.41586859 9.01033365 -202.25708008 12.57299805 C-203.14808914 12.84089645 -204.03909821 13.10879486 -204.95710754 13.3848114 C-205.63126205 13.58782364 -206.30541656 13.79083588 -207 14 C-213.52504513 7.52121765 -220.04473254 1.03710575 -226.55757141 -5.45394707 C-229.58164545 -8.46756693 -232.6075588 -11.47929133 -235.63769531 -14.48681641 C-238.55978875 -17.38723965 -241.47702362 -20.29246732 -244.39089966 -23.20114517 C-245.50557425 -24.31211351 -246.62201266 -25.42131495 -247.74020386 -26.52874374 C-249.30150799 -28.07561036 -250.85652212 -29.62854093 -252.41015625 -31.18310547 C-253.29840088 -32.06690887 -254.18664551 -32.95071228 -255.10180664 -33.86129761 C-257 -36 -257 -36 -257 -38 C-169.50538309 -65.96482145 -74.71082815 -56.05667434 0 0 Z " fill="#B0B0B0" transform="translate(420,123)"/>
<path d="M0 0 C17.83623427 -0.88201158 33.95889619 3.94784403 48 15 C48.76054687 15.58394531 49.52109375 16.16789062 50.3046875 16.76953125 C63.30845099 27.45601509 71.67190708 43.42619562 74 60 C74.29462845 65.00269532 74.18695244 69.9938291 74 75 C69.12961401 70.93804723 64.53653996 66.68518114 60.05493164 62.20019531 C59.40042023 61.54904251 58.74590881 60.89788971 58.07156372 60.227005 C55.93180134 58.09666163 53.7957539 55.96264281 51.66015625 53.828125 C50.16807744 52.33926188 48.6759244 50.85047314 47.18370056 49.36175537 C44.0695019 46.25352293 40.95735531 43.14325228 37.84643555 40.03173828 C33.85093891 36.03613943 29.84857273 32.04749779 25.84446049 28.06053543 C22.76740888 24.99456506 19.69487516 21.9240984 16.6236248 18.85231781 C15.14876878 17.37864498 13.67228378 15.90660062 12.19417 14.43619537 C10.1377987 12.38955825 8.08778479 10.3367596 6.03930664 8.28222656 C5.11605339 7.36740257 5.11605339 7.36740257 4.17414856 6.43409729 C0 2.22832409 0 2.22832409 0 0 Z " fill="#B0B0B0" transform="translate(252,174)"/>
</svg>
