<?xml version="1.0" encoding="UTF-8"?>
<svg version="1.1" xmlns="http://www.w3.org/2000/svg" width="512" height="512">
<path d="M0 0 C1.54264526 0.01921509 1.54264526 0.01921509 3.11645508 0.03881836 C20.00883405 0.48794907 33.70396608 7.09863262 45.390625 19.41015625 C56.5665259 32.4276366 59.17559437 47.71152061 61.625 64.1875 C61.85162337 65.67912624 62.07883301 67.17066354 62.30664062 68.66210938 C62.85700919 72.27374135 63.39948292 75.88650484 63.9375 79.5 C64.77607609 79.50089563 64.77607609 79.50089563 65.63159311 79.50180936 C98.78357051 79.53772245 131.93544006 79.59439078 165.0873306 79.67792095 C169.07010154 79.68793811 173.0528729 79.69778229 177.03564453 79.70751953 C177.82852496 79.7094609 178.62140538 79.71140228 179.43831249 79.71340248 C192.26760768 79.74440281 205.09688499 79.76139764 217.92621057 79.77319422 C231.0954743 79.78561598 244.26464438 79.81314049 257.43384898 79.85461307 C265.55651219 79.87971918 273.67902004 79.89311939 281.8017226 79.89142957 C288.03579496 79.89139623 294.269637 79.91240057 300.50363922 79.94116783 C303.05694099 79.9496777 305.61027587 79.95140943 308.16358566 79.94580269 C311.65492377 79.9391581 315.14532258 79.95709641 318.63656616 79.98101807 C319.64242999 79.97325765 320.64829383 79.96549723 321.68463838 79.95750165 C333.07907585 80.09531434 342.77972706 84.80906183 351.1015625 92.5 C360.6571634 102.52085487 363.46818323 113.38173293 363.25018311 126.8260498 C362.81397223 137.88647993 360.62213856 148.81975664 358.76285219 159.71097279 C358.16978836 163.20459642 357.59384094 166.70104346 357.01596069 170.19720459 C355.92129277 176.80466487 354.81226146 183.40962384 353.69754922 190.01372886 C352.31249364 198.22331437 350.94485747 206.43578494 349.578125 214.6484375 C349.09566352 217.54752113 348.61313484 220.44659354 348.13046265 223.34564209 C348.01328176 224.04952112 347.89610087 224.75340015 347.77536905 225.47860885 C347.08685016 229.61158229 346.39495643 233.74397221 345.69969583 237.87581682 C345.37057974 239.83196252 345.04221041 241.78823382 344.71385193 243.74450684 C344.31695651 246.1082439 343.91880872 248.47177124 343.51902771 250.83502197 C342.38079371 257.62360708 341.3820658 264.41549939 340.50676537 271.24334335 C337.88801258 286.22471969 328.97568864 298.5107849 316.9375 307.5 C302.58803391 316.72321519 286.7959894 316.94391331 270.34106445 316.81225586 C268.41746243 316.8080856 266.49385725 316.80520337 264.57025146 316.80349731 C259.39061986 316.79477641 254.21126723 316.76676757 249.03173852 316.73397899 C244.69275356 316.70828149 240.35375354 316.69213718 236.01472443 316.67591387 C225.77558509 316.63745562 215.53661386 316.58323801 205.29760742 316.51879883 C194.76102465 316.45274144 184.22456466 316.41230407 173.68781692 316.38460058 C164.61045281 316.35989024 155.53324549 316.3198079 146.45599908 316.26739794 C141.04777692 316.23628868 135.63968249 316.21074618 130.23137856 316.19981194 C125.14785964 316.18882031 120.06480574 316.15850466 114.98147583 316.11371231 C113.12403611 316.1004768 111.26653481 316.0938484 109.40904808 316.09457207 C93.63788561 316.09394615 82.05113195 313.99224795 70.1875 302.9375 C56.76465299 288.39608241 56.46020559 268.89974946 53.79882812 250.10595703 C53.49815848 248.00157675 53.19715919 245.89724355 52.89585876 243.79295349 C52.25233375 239.29451809 51.61085083 234.79579809 50.97093201 230.2968483 C49.95784841 223.17632335 48.93851582 216.05670142 47.91809082 208.93722534 C45.01896125 188.70370761 42.12738948 168.46911564 39.24365234 148.23339844 C37.64734472 137.03220115 36.0455318 125.83180491 34.43777609 114.63224494 C33.42297314 107.56088598 32.41497808 100.48860113 31.41207123 93.4155457 C30.7863961 89.01455494 30.1542915 84.61450539 29.52038765 80.21469307 C29.22868704 78.18099262 28.93960032 76.14691519 28.65337944 74.11243629 C27.15725966 56.99077733 27.15725966 56.99077733 19.75 42.125 C19.22019531 41.51914063 18.69039062 40.91328125 18.14453125 40.2890625 C11.213023 34.67024696 4.48880022 33.83017957 -4.171875 33.3671875 C-10.85540577 32.87290709 -14.73474205 30.95027153 -19.4375 26 C-21.83553575 20.83499991 -21.81631535 16.0997712 -21.0625 10.5 C-16.58705094 0.86057126 -9.67715167 -0.1809033 0 0 Z M222.41235352 158.59310913 C219.49912323 161.35990668 216.6777994 164.19660946 213.875 167.07421875 C212.83378332 168.12477504 211.79144666 169.17422238 210.74804688 170.22261047 C208.0210337 172.96860293 205.30938003 175.72927854 202.60076904 178.4934082 C199.82769215 181.31787418 197.04018886 184.12802434 194.25390625 186.93945312 C188.8009745 192.4458122 183.36420725 197.96778089 177.9375 203.5 C176.8339436 202.56637814 175.7321612 201.63065919 174.63110352 200.6940918 C174.01735367 200.17324509 173.40360382 199.65239838 172.77125549 199.11576843 C169.44782302 196.18740786 166.42579193 192.95703231 163.38867188 189.73632812 C159.2852619 185.51429132 155.46642074 182.77095579 149.4375 182.125 C144.07007767 182.70008096 140.63775376 184.4537908 137.125 188.5 C133.89180049 192.93410219 133.57068301 196.08944944 133.9375 201.5 C136.13566975 207.17898184 139.83847673 210.82252905 144.08984375 215.015625 C144.78638565 215.71266541 145.48292755 216.40970581 146.20057678 217.12786865 C147.66877861 218.593738 149.14065509 220.05593499 150.6159668 221.51464844 C152.87271887 223.74774279 155.1157902 225.99392595 157.35742188 228.2421875 C158.78827111 229.66746159 160.21988595 231.09196759 161.65234375 232.515625 C162.32224838 233.18644104 162.99215302 233.85725708 163.68235779 234.54840088 C164.31303665 235.16954773 164.94371552 235.79069458 165.59350586 236.43066406 C166.14405136 236.97660217 166.69459686 237.52254028 167.26182556 238.08502197 C170.38719433 240.72415522 173.17984462 241.80270594 177.25 241.875 C177.96800781 241.90335937 178.68601562 241.93171875 179.42578125 241.9609375 C185.8502785 240.78194734 190.57348367 236.30475837 195.00878906 231.81689453 C195.57069946 231.26024109 196.13260986 230.70358765 196.71154785 230.13006592 C198.54964443 228.30507301 200.3766651 226.46944578 202.203125 224.6328125 C203.48587022 223.35209049 204.7690603 222.0718139 206.05267334 220.79196167 C208.73370381 218.11534128 211.40926567 215.43340287 214.08105469 212.74755859 C217.49942637 209.31207876 220.93111436 205.89026729 224.36700821 202.47232246 C227.01647255 199.83371665 229.65872799 197.18798493 232.29888153 194.54006577 C233.56131815 193.27563377 234.8259709 192.01341027 236.09290314 190.75348282 C237.8639084 188.9901278 239.62496115 187.21738502 241.38378906 185.44189453 C241.90434875 184.92740753 242.42490845 184.41292053 242.96124268 183.88284302 C247.2285085 179.54068785 249.65475864 175.69124557 250.4375 169.625 C250.24026455 164.73168229 248.02477969 161.19112779 244.9375 157.5 C237.69671096 151.59304052 229.25997886 152.91707124 222.41235352 158.59310913 Z " fill="#FF79FC" transform="translate(85.0625,47.5)"/>
<path d="M0 0 C6.37833462 3.67425101 11.69819321 8.77519068 14.2265625 15.84375 C16.36419349 23.93824601 15.78550624 31.72613533 11.65625 39.0703125 C7.65249591 45.10299603 1.33682677 49.53355774 -5.5 51.8125 C-15.65244782 52.67025529 -22.37714357 51.26057645 -30.75 45.625 C-36.60024286 39.64179707 -39.19777543 33.34586853 -39.75 25.0625 C-39.59287601 16.70350396 -36.13937941 9.86351294 -30.5 3.8125 C-21.78934946 -3.08343168 -10.15980493 -4.83655385 0 0 Z " fill="#FF79FC" transform="translate(204.5,423.1875)"/>
<path d="M0 0 C5.95147337 3.48630503 10.06700953 8.3175165 12.59375 14.73828125 C14.58782881 22.53760726 14.08602924 30.7086128 10.7109375 38.03125 C6.96516623 43.91602739 1.21877377 48.86426224 -5.51953125 50.91796875 C-15.09255256 52.6478305 -22.67375412 51.39263551 -30.71484375 46 C-36.13327634 41.7984188 -38.61288719 36.71993218 -40.74609375 30.3203125 C-41.53506447 21.06507903 -40.4913898 13.34930899 -34.55859375 6.0078125 C-25.53455067 -3.61016972 -11.84203853 -5.43631303 0 0 Z " fill="#FF79FC" transform="translate(376.74609375,423.6796875)"/>
</svg>
