<?xml version="1.0" encoding="UTF-8"?>
<svg version="1.1" xmlns="http://www.w3.org/2000/svg" width="512" height="512">
<path d="M0 0 C1.29955778 -0.00597315 1.29955778 -0.00597315 2.62536925 -0.01206696 C3.57769496 -0.00624128 4.53002066 -0.00041559 5.51120472 0.00558662 C6.52240543 0.00387777 7.53360613 0.00216892 8.57544929 0.00040829 C11.97962731 -0.0028982 15.38361026 0.00813623 18.78777027 0.01904488 C21.22167932 0.01960874 23.65558871 0.01929292 26.08949757 0.01815987 C31.33766743 0.01770374 36.58579279 0.02339367 41.83394909 0.03463554 C49.42192914 0.0508789 57.00988514 0.05609735 64.5978807 0.05861153 C76.90842392 0.06299046 89.21894065 0.07630494 101.52946949 0.09521675 C113.48910356 0.11357042 125.44873044 0.12772943 137.40837574 0.13623238 C138.14537548 0.13675782 138.88237521 0.13728327 139.64170828 0.13782464 C143.33896193 0.14043469 147.03621563 0.14296211 150.73346937 0.14544845 C181.41345386 0.16618713 212.09340625 0.20156656 242.77336597 0.24609566 C242.78216534 1.36576729 242.78216534 1.36576729 242.79114246 2.50805855 C242.84923406 9.56952703 242.92140392 16.63068208 243.00908089 23.6918354 C243.05366003 27.32139011 243.09294271 30.95083579 243.11980152 34.58056831 C243.14596001 38.08859917 243.18644863 41.59620764 243.23655224 45.1039753 C243.26116484 47.08232212 243.2712332 49.06083279 243.28101063 51.03930855 C243.44318235 61.04007675 244.86464157 67.98871089 251.80070972 75.48437691 C257.2364107 80.33883461 263.52849736 82.34771611 270.71355152 82.45141792 C272.54511044 82.48133575 272.54511044 82.48133575 274.41367054 82.51185799 C275.73248722 82.52857048 277.0513039 82.54528297 278.41008472 82.56250191 C279.77343842 82.58307826 281.13678583 82.60407491 282.50012684 82.62547493 C286.0855802 82.68062535 289.67109046 82.73006553 293.25664234 82.77832222 C296.91656518 82.82858865 300.57640555 82.88424785 304.2362566 82.93945503 C311.41522319 83.04695059 318.59425843 83.14841456 325.77336597 83.24609566 C325.86489937 125.93133504 325.93539345 168.61656311 325.97762729 211.30188117 C325.98263019 216.34000816 325.98780747 221.37813497 325.99309254 226.41626167 C325.99414178 227.41927206 325.99519102 228.42228245 325.99627206 229.4556871 C326.01368253 245.70136916 326.04522376 261.94699467 326.08197716 278.19264317 C326.11936869 294.85922634 326.14159805 311.52577987 326.14971995 328.19240326 C326.15521143 338.47858803 326.17256268 348.76461295 326.20503184 359.05074852 C326.22615765 366.10206211 326.2325704 373.15329292 326.22737148 380.20463587 C326.22480669 384.27437325 326.22876881 388.34383109 326.25018787 392.41351891 C326.26965835 396.14016876 326.27063308 399.86635117 326.25696155 403.59302258 C326.25447219 405.57816345 326.27171978 407.56329885 326.28969121 409.54835993 C326.24418199 416.31605304 325.95453895 420.80409573 321.77336597 426.24609566 C317.16359143 429.70342657 313.07031371 430.3700639 307.41528416 430.37752342 C306.32195074 430.38136457 305.22861732 430.38520571 304.10215259 430.38916326 C302.90139409 430.38829677 301.7006356 430.38743029 300.46349049 430.38653755 C299.18756542 430.38950867 297.91164036 430.3924798 296.59705091 430.39554095 C293.05283658 430.40360902 289.5086425 430.40540042 285.96442008 430.40613842 C282.14289192 430.40798931 278.32137427 430.41553682 274.49985218 430.42227364 C266.14238186 430.43585607 257.78491635 430.44188153 249.42743683 430.44628429 C244.2090892 430.44904684 238.99074342 430.45328422 233.77239704 430.45778847 C219.32457947 430.46998097 204.87676338 430.48028035 190.42894077 430.48366356 C189.50423143 430.48388313 188.57952209 430.48410269 187.62679125 430.48432891 C186.69986861 430.48454719 185.77294596 430.48476547 184.81793475 430.48499036 C182.93963448 430.48543382 181.06133421 430.48588039 179.18303394 430.48633003 C177.78548104 430.48666218 177.78548104 430.48666218 176.35969475 430.48700103 C161.26275873 430.49094905 146.16587098 430.50840329 131.0689536 430.53168955 C115.56953633 430.55540371 100.07014327 430.56786544 84.57070756 430.56903148 C75.86820138 430.5699482 67.16575809 430.57569975 58.46326923 430.59385109 C51.05288288 430.60925293 43.64257886 430.61437205 36.23217955 430.60611299 C32.45195121 430.60220678 28.67188865 430.60313454 24.89168072 430.61717033 C20.79139279 430.63225522 16.69147829 430.62404193 12.59117603 430.61358833 C11.39934043 430.62164474 10.20750482 430.62970114 8.97955298 430.63800168 C1.58957528 430.59388103 -4.97188465 430.32954243 -10.60163403 424.99609566 C-13.77880911 419.61933783 -14.47666483 414.30452026 -14.47831631 408.14174843 C-14.48122319 407.45873085 -14.48413007 406.77571326 -14.48712504 406.07199818 C-14.49440548 403.79054361 -14.48749094 401.50935964 -14.48060131 399.22790718 C-14.48290651 397.5728083 -14.48608344 395.91771045 -14.4900558 394.26261473 C-14.49840421 389.71988549 -14.49427829 385.17724029 -14.48808336 380.63451076 C-14.48356009 375.73328949 -14.49054202 370.83208272 -14.49604321 365.93086433 C-14.50494016 356.33148325 -14.50301384 346.73213342 -14.49721792 337.13275111 C-14.49270264 329.33167808 -14.49208796 321.53061383 -14.49426556 313.72953987 C-14.49457202 312.6195895 -14.49487849 311.50963914 -14.49519424 310.36605391 C-14.49583369 308.11126776 -14.49648211 305.85648162 -14.49713942 303.60169548 C-14.5028436 282.45457924 -14.49628344 261.30748034 -14.48553869 240.16036695 C-14.4766031 222.01201393 -14.47815512 203.8636865 -14.48737621 185.71533394 C-14.49807728 164.64429761 -14.50229427 143.57327647 -14.49615169 122.5022378 C-14.49551458 120.25570901 -14.49488584 118.00918023 -14.49426556 115.76265144 C-14.49395701 114.65729313 -14.49364845 113.55193481 -14.49333055 112.41308078 C-14.49160312 104.62065491 -14.49451975 96.82823867 -14.49922466 89.03581429 C-14.50483167 79.54050612 -14.50332081 70.04523102 -14.49266317 60.54992664 C-14.48740406 55.70455472 -14.48535383 50.85923795 -14.49196148 46.01386642 C-14.49791803 41.57889388 -14.49465063 37.14402767 -14.48400638 32.70906478 C-14.48177111 31.10418135 -14.48291147 29.49928894 -14.48775795 27.89441127 C-14.49384058 25.7129608 -14.48760035 23.5318744 -14.47831631 21.35044289 C-14.4779916 20.13875262 -14.4776669 18.92706235 -14.47733235 17.67865419 C-14.09251751 12.40977387 -13.27994691 8.46145668 -9.78913403 4.43359566 C-6.40145643 1.54167576 -4.43697136 -0.00449769 0 0 Z M38.77336597 83.24609566 C37.18724096 85.50305993 37.18724096 85.50305993 36.77336597 88.24609566 C37.89099805 90.58780095 38.93660958 92.40933926 40.77336597 94.24609566 C42.51268761 94.34892689 44.25620428 94.38130609 45.99855518 94.38653755 C47.13150517 94.3922477 48.26445515 94.39795784 49.43173695 94.40384102 C51.31279888 94.40551781 51.31279888 94.40551781 53.23186207 94.40722847 C55.19995083 94.41467583 55.19995083 94.41467583 57.20779896 94.42227364 C60.81732967 94.43542143 64.42684176 94.44184725 68.03639269 94.44628429 C70.28959722 94.4492113 72.54279662 94.45331539 74.79599857 94.45778847 C81.84021843 94.47146989 88.88442661 94.48113329 95.92865884 94.48499036 C104.07040487 94.48947236 112.21198311 94.50702402 120.35367811 94.53599095 C126.63989623 94.55758279 132.92606706 94.5676933 139.21232188 94.56903148 C142.97004391 94.57008134 146.72760837 94.57602732 150.48529148 94.59385109 C154.67565872 94.61333966 158.86567338 94.60905282 163.05608082 94.60254097 C164.93107006 94.61636314 164.93107006 94.61636314 166.84393787 94.63046455 C167.9825275 94.6248954 169.12111713 94.61932625 170.29420948 94.61358833 C171.28568171 94.61505489 172.27715393 94.61652145 173.29867077 94.61803246 C175.80908786 94.43702747 175.80908786 94.43702747 177.59237576 92.91062737 C179.42988255 90.32077668 179.15824447 88.32512362 178.77336597 85.24609566 C177.22830131 83.20941951 176.05190441 82.38536488 173.77336597 81.24609566 C172.04658265 81.14870701 170.31603165 81.11540522 168.58650684 81.11238289 C166.93767254 81.10598541 166.93767254 81.10598541 165.25552845 81.09945869 C164.04405643 81.09991188 162.83258442 81.10036507 161.58440113 81.10083199 C160.31281651 81.09747337 159.04123188 81.09411476 157.73111439 81.09065437 C154.23726923 81.08180423 150.74344854 81.07947582 147.24959326 81.07883859 C144.33457726 81.07789007 141.41956699 81.07421238 138.5045532 81.07066649 C131.62735764 81.06251784 124.75017518 81.06008261 117.87297535 81.06079292 C110.77592428 81.06139363 103.67894924 81.05084425 96.58191741 81.03504926 C90.4918401 81.0219777 84.40178764 81.01660887 78.31169641 81.01724833 C74.67304431 81.01750346 71.03445972 81.01464417 67.39582157 81.00407028 C63.33753474 80.99259943 59.27941841 80.99713376 55.22111988 81.00317574 C54.01369633 80.99755623 52.80627277 80.99193672 51.56226063 80.98614693 C49.90496685 80.99243866 49.90496685 80.99243866 48.21419239 80.9988575 C47.25443815 80.99831273 46.29468391 80.99776796 45.30584621 80.99720669 C42.62664281 81.26051543 41.02605881 81.79251276 38.77336597 83.24609566 Z M37.77336597 118.24609566 C36.68768094 120.08877434 36.68768094 120.08877434 36.77336597 122.24609566 C38.54200186 125.94368744 38.54200186 125.94368744 41.77336597 128.24609566 C44.22339473 128.36486309 46.64592653 128.42438076 49.09709644 128.43896675 C49.85174183 128.44714424 50.60638721 128.45532173 51.38390064 128.46374702 C53.88611014 128.48859994 56.38826298 128.50511537 58.89055347 128.51953316 C59.74426659 128.52485683 60.5979797 128.53018051 61.4775629 128.53566551 C65.99493735 128.56239476 70.51228416 128.58177164 75.02971363 128.59619331 C79.69968368 128.61285436 84.3689498 128.65764437 89.03865337 128.70856476 C92.62628985 128.74218727 96.21375808 128.75376511 99.80153751 128.75942039 C101.52317793 128.76614517 103.24480681 128.78139907 104.96629429 128.8053112 C107.37506591 128.83686483 109.78192318 128.83701544 112.19084644 128.82959175 C113.25859806 128.85419975 113.25859806 128.85419975 114.34792042 128.87930489 C118.078399 128.83220922 119.5124811 128.49627674 122.24727345 125.87368965 C123.99309256 123.37421164 123.99309256 123.37421164 123.77336597 120.62109566 C122.52021302 117.64485738 121.57616658 116.85036486 118.77336597 115.24609566 C116.2048181 114.95637159 113.88081888 114.83562655 111.3143816 114.85791206 C110.56919773 114.85265511 109.82401386 114.84739815 109.05624866 114.84198189 C106.59715682 114.82879624 104.13871421 114.83751456 101.67961597 114.84765816 C99.96855514 114.845637 98.25749515 114.84272522 96.54643726 114.83896065 C92.96200317 114.83453925 89.3777935 114.84096234 85.79338551 114.85498238 C81.19984289 114.87207425 76.60682613 114.86223207 72.0133028 114.84426498 C68.48054006 114.83342212 64.94790189 114.83687578 61.41513538 114.84464836 C59.72146003 114.84664898 58.02777334 114.84419593 56.33411121 114.8372097 C53.96655301 114.82958683 51.59984525 114.84121039 49.23235035 114.85791206 C48.18333797 114.84880302 48.18333797 114.84880302 47.11313343 114.83950996 C43.05803668 114.89248026 40.67856353 115.3399516 37.77336597 118.24609566 Z M207.08586597 124.55859566 C205.85029957 124.86732613 204.61473316 125.17605659 203.34172535 125.49414253 C201.56958668 125.95337105 201.56958668 125.95337105 199.76164722 126.42187691 C198.68439381 126.69942818 197.60714039 126.97697945 196.49724293 127.26294136 C193.76807021 128.24800711 192.47043317 128.92240794 190.77336597 131.24609566 C190.37920794 134.39935992 190.19075762 136.35685133 191.96086597 139.05859566 C195.1747158 141.1642214 197.9229155 141.41021768 201.66789722 140.68750191 C202.63082691 140.39746284 203.5937566 140.10742378 204.58586597 139.80859566 C205.56168629 139.52113472 206.5375066 139.23367378 207.54289722 138.93750191 C208.64697926 138.59525581 208.64697926 138.59525581 209.77336597 138.24609566 C173.08380502 191.12222762 115.99946502 219.22201529 53.96648121 230.76855659 C53.07388599 230.93645699 52.18129078 231.10435738 51.26164722 231.27734566 C50.06342335 231.49487495 50.06342335 231.49487495 48.84099293 231.71679878 C46.55364527 232.18454621 46.55364527 232.18454621 44.08586597 233.99609566 C42.52498639 236.25302611 42.52498639 236.25302611 42.71086597 239.30859566 C43.53964876 242.2978665 43.53964876 242.2978665 45.67180347 244.01562691 C50.45549332 245.91343837 54.49774413 244.80809092 59.46086597 243.87109566 C60.51378834 243.68192574 61.5667107 243.49275581 62.6515398 243.29785347 C113.76424463 233.68994702 159.00657971 210.78491324 196.77336597 175.24609566 C197.43207691 174.62992378 198.09078785 174.01375191 198.76945972 173.37890816 C206.28812388 166.12070581 212.6205455 157.66701466 218.77336597 149.24609566 C218.87133472 150.00535347 218.96930347 150.76461128 219.07024097 151.54687691 C219.29453785 153.03767769 219.29453785 153.03767769 219.52336597 154.55859566 C219.66258472 155.54472847 219.80180347 156.53086128 219.94524097 157.54687691 C220.93028507 160.75756309 221.84454723 161.67361179 224.77336597 163.24609566 C227.90016696 163.25284492 227.90016696 163.25284492 230.77336597 162.24609566 C233.236866 158.55084562 233.03801068 155.76508489 232.96086597 151.49609566 C232.95224537 150.74618355 232.94362476 149.99627144 232.93474293 149.22363472 C232.89828254 146.89702142 232.84027077 144.57202123 232.77336597 142.24609566 C232.75403004 141.52550972 232.7346941 140.80492378 232.71477222 140.06250191 C232.66844733 130.59601687 232.66844733 130.59601687 228.77336597 122.24609566 C222.32148903 119.02015718 213.57269833 122.86088334 207.08586597 124.55859566 Z M235.11191177 196.3688612 C233.14526833 199.12696693 233.39266534 201.28799824 233.38568592 204.65416145 C233.38030038 205.30727084 233.37491485 205.96038023 233.36936611 206.63328081 C233.35503658 208.8259429 233.36220213 211.01800551 233.36931324 213.21069527 C233.36361224 214.78098729 233.35664903 216.35127517 233.34851551 217.92155647 C233.33053865 222.19016582 233.33176098 226.45857012 233.3374579 230.72720599 C233.34054334 234.28847001 233.33446447 237.84969426 233.32841915 241.41095263 C233.31436056 249.81135605 233.31594617 258.21165782 233.32732105 266.61206245 C233.33880302 275.28325048 233.3247284 283.95412924 233.29792458 292.62527651 C233.27578478 300.06569982 233.26912632 307.50602593 233.27500099 314.94647986 C233.27837599 319.39223639 233.27591971 323.83779467 233.25874996 328.28352356 C233.24331027 332.46394616 233.24720291 336.64390985 233.26605511 340.82431412 C233.26974934 342.3594027 233.26660825 343.89452506 233.25616932 345.4295826 C233.24301337 347.5239364 233.25445599 349.61675886 233.27216053 351.71104622 C233.27236981 352.88335761 233.2725791 354.055669 233.27279472 355.26350498 C233.87958324 358.87897783 234.87844703 360.06118807 237.77336597 362.24609566 C240.71421426 362.82712223 240.71421426 362.82712223 243.96477222 362.70703316 C245.15651051 362.70316597 246.34824879 362.69929878 247.57610035 362.69531441 C248.81682301 362.67082222 250.05754566 362.64633003 251.33586597 362.62109566 C252.58045582 362.61980659 253.82504566 362.61851753 255.10735035 362.61718941 C261.81974571 362.80909356 261.81974571 362.80909356 267.77336597 360.24609566 C268.22878505 357.32905391 268.22878505 357.32905391 268.14758778 353.83093452 C268.15354939 352.8320594 268.15354939 352.8320594 268.15963143 351.81300497 C268.16929226 349.57108671 268.15741417 347.32979356 268.14568043 345.08789253 C268.14810716 343.48494925 268.15182532 341.88200748 268.15674305 340.2790699 C268.16617202 335.91754254 268.15670989 331.55623879 268.14341092 327.19472885 C268.13212073 322.63791672 268.13620204 318.08111599 268.13815784 313.5242939 C268.13904159 305.87081421 268.12794358 298.21742295 268.10954762 290.56396675 C268.08837875 281.70595574 268.08486963 272.84807434 268.09110957 263.99004316 C268.09679745 255.48122471 268.09116439 246.97245206 268.07993603 238.46364021 C268.07528238 234.83687178 268.07441949 231.21013129 268.07652187 227.58336067 C268.07840076 223.31523937 268.07033182 219.04725062 268.05446148 214.77915955 C268.05020641 213.20937269 268.04937624 211.63957242 268.05215168 210.06978226 C268.05535665 207.93345993 268.04633486 205.79753793 268.03406239 203.66125679 C268.03200952 202.46367996 268.02995665 201.26610313 268.02784157 200.0322361 C268.06020469 197.10636177 268.06020469 197.10636177 265.77336597 195.24609566 C261.6556908 194.84809028 257.53247935 194.91704849 253.39714527 194.93042183 C251.34687984 194.9335787 249.29806193 194.91013806 247.24797535 194.88476753 C245.3134148 194.88380074 245.3134148 194.88380074 243.33977222 194.88281441 C242.15327076 194.87983345 240.96676929 194.87685249 239.74431324 194.8737812 C236.85522411 195.00823939 236.85522411 195.00823939 235.11191177 196.3688612 Z M170.77336597 229.24609566 C170.17159619 231.70037619 170.17159619 231.70037619 170.2654314 234.52197456 C170.25415211 235.6156031 170.24287281 236.70923164 170.23125172 237.83600044 C170.23934864 239.03609749 170.24744556 240.23619453 170.25578785 241.47265816 C170.24877857 242.73624153 170.24176929 243.99982491 170.23454762 245.30169868 C170.21629625 248.76870976 170.22338881 252.23524528 170.23606396 255.70226479 C170.24618245 259.32837912 170.2368015 262.9544524 170.23051929 266.58056831 C170.22323949 272.67032377 170.23283917 278.75988527 170.2518816 284.84961128 C170.27365119 291.89286594 170.26660004 298.93565748 170.24457598 305.97890091 C170.2264313 312.02315997 170.22385902 318.06727951 170.23433065 324.11155701 C170.24057081 327.72282568 170.24138716 331.33387657 170.2281847 334.9451313 C170.21449755 338.9702115 170.23346037 342.99449177 170.25578785 347.01953316 C170.24769093 348.2196302 170.239594 349.41972725 170.23125172 350.65619087 C170.24253101 351.74981941 170.25381031 352.84344795 170.2654314 353.97021675 C170.26693951 354.92221962 170.26844761 355.87422249 170.27000141 356.85507393 C170.57024999 359.38485145 170.57024999 359.38485145 172.6315279 361.05157661 C175.44523594 362.62080254 177.49779815 362.63410757 180.71086597 362.64453316 C181.85297535 362.64840034 182.99508472 362.65226753 184.17180347 362.65625191 C185.3603191 362.64465034 186.54883472 362.63304878 187.77336597 362.62109566 C189.55613941 362.638498 189.55613941 362.638498 191.37492847 362.65625191 C192.51703785 362.65238472 193.65914722 362.64851753 194.83586597 362.64453316 C195.87871754 362.64114937 196.9215691 362.63776558 197.99602222 362.63427925 C201.23730302 362.18125214 202.44037791 361.5129409 204.77336597 359.24609566 C205.37513575 356.79181513 205.37513575 356.79181513 205.28130054 353.97021675 C205.29257984 352.87658821 205.30385914 351.78295967 205.31548023 350.65619087 C205.30738331 349.45609383 205.29928638 348.25599678 205.2909441 347.01953316 C205.29795338 345.75594978 205.30496265 344.49236641 205.31218433 343.19049263 C205.3304357 339.72348155 205.32334314 336.25694603 205.31066799 332.78992653 C205.3005495 329.1638122 205.30993045 325.53773891 205.31621265 321.911623 C205.32349246 315.82186754 205.31389278 309.73230605 205.29485035 303.64258003 C205.27308076 296.59932537 205.28013191 289.55653384 205.30215597 282.51329041 C205.32030065 276.46903134 205.32287293 270.4249118 205.31240129 264.38063431 C205.30616114 260.76936564 205.30534479 257.15831474 205.31854725 253.54706001 C205.3322344 249.52197981 205.31327158 245.49769954 205.2909441 241.47265816 C205.29904102 240.27256111 205.30713795 239.07246407 205.31548023 237.83600044 C205.30420094 236.7423719 205.29292164 235.64874336 205.28130054 234.52197456 C205.27903839 233.09397026 205.27903839 233.09397026 205.27673054 231.63711739 C204.97648196 229.10733986 204.97648196 229.10733986 202.91520405 227.4406147 C200.10149601 225.87138878 198.0489338 225.85808375 194.83586597 225.84765816 C193.6937566 225.84379097 192.55164722 225.83992378 191.37492847 225.83593941 C189.59215504 225.85334175 189.59215504 225.85334175 187.77336597 225.87109566 C186.58485035 225.85949409 185.39633472 225.84789253 184.17180347 225.83593941 C182.45863941 225.84174019 182.45863941 225.84174019 180.71086597 225.84765816 C179.66801441 225.85104195 178.62516285 225.85442574 177.55070972 225.85791206 C174.30942893 226.31093918 173.10635404 226.97925042 170.77336597 229.24609566 Z M107.77336597 260.24609566 C107.46613492 263.39919538 107.35376359 266.35690199 107.36931324 269.51342964 C107.36244999 270.4745063 107.35558674 271.43558296 107.34851551 272.42578316 C107.33015745 275.61473393 107.33409792 278.80319694 107.33977222 281.99218941 C107.33521465 284.20175017 107.32991035 286.41130952 107.32388783 288.62086678 C107.31493893 293.25715065 107.31739997 297.89326244 107.32732105 302.52954292 C107.33881098 308.47969723 107.31860751 314.42925814 107.28940392 320.37933445 C107.27108338 324.94403565 107.27132614 329.50859358 107.27704144 334.0733223 C107.27719517 336.26743655 107.27110816 338.4615602 107.25874996 340.65563965 C107.24392074 343.72059724 107.25445796 346.78444499 107.27165699 349.84936714 C107.26198902 350.76116234 107.25232105 351.67295753 107.24236012 352.61238289 C107.17591738 357.40838604 107.17591738 357.40838604 109.6311388 361.30813789 C114.35293259 363.37553915 119.71086342 362.71379497 124.77336597 362.68359566 C125.9618816 362.70357613 127.15039722 362.72355659 128.37492847 362.74414253 C130.08809254 362.74317574 130.08809254 362.74317574 131.83586597 362.74218941 C133.40014332 362.74496895 133.40014332 362.74496895 134.99602222 362.74780464 C138.65618215 362.08662069 139.58029292 361.25700261 141.77336597 358.24609566 C142.36919254 355.14558745 142.30936226 352.08432577 142.27507496 348.93530464 C142.28047794 347.99344307 142.28588093 347.0515815 142.29144764 346.08117867 C142.3039553 342.96786264 142.28743129 339.85546759 142.26945972 336.74218941 C142.26961465 334.58032877 142.27110258 332.41846784 142.27386951 330.25660896 C142.27525438 325.72636827 142.2626795 321.19644385 142.23991871 316.66626167 C142.21151709 310.852989 142.21427494 305.04024128 142.22700882 299.22692966 C142.23395572 294.76344997 142.22618829 290.30009211 142.21375179 285.83662796 C142.20922888 283.69276649 142.2089078 281.54889198 142.21281719 279.4050293 C142.21572012 276.41224296 142.19926682 273.42018638 142.17741871 270.42749214 C142.18192036 269.53754051 142.186422 268.64758888 142.19106007 267.73066902 C142.18115543 266.91615273 142.1712508 266.10163643 142.16104603 265.26243782 C142.15861613 264.55508712 142.15618624 263.84773642 142.15368271 263.11895084 C141.65371906 260.656899 140.74533578 259.76226001 138.77336597 258.24609566 C135.82124149 257.79839397 135.82124149 257.79839397 132.46086597 257.88281441 C131.22078785 257.88345894 129.98070972 257.88410347 128.70305347 257.88476753 C127.4062566 257.90088081 126.10945972 257.91699409 124.77336597 257.93359566 C123.4765691 257.930373 122.17977222 257.92715034 120.84367847 257.92383003 C113.92205141 257.66884107 113.92205141 257.66884107 107.77336597 260.24609566 Z M45.11392689 291.88684273 C43.3875342 294.92512094 43.38620221 297.02324411 43.36931324 300.51172066 C43.35662907 301.77983589 43.34394489 303.04795113 43.33087635 304.35449409 C43.33292771 305.73502961 43.33591568 307.11556401 43.33977222 308.49609566 C43.33520991 309.91569455 43.32990419 311.33529124 43.32388783 312.75488472 C43.31496061 315.72730684 43.31737563 318.69946023 43.32732105 321.67187691 C43.33881786 325.47864319 43.31858779 329.28448284 43.28940392 333.0911274 C43.27104826 336.02170883 43.27133287 338.95206784 43.27704144 341.88269234 C43.27719469 343.28610727 43.27114665 344.68953723 43.25874996 346.09289742 C43.24385473 348.05537002 43.25713947 350.01799522 43.27165699 351.98047066 C43.27182316 353.09647652 43.27198933 354.21248238 43.27216053 355.36230659 C43.88831966 358.90750546 44.94297133 360.08767707 47.77336597 362.24609566 C50.71421426 362.82712223 50.71421426 362.82712223 53.96477222 362.70703316 C55.15651051 362.70316597 56.34824879 362.69929878 57.57610035 362.69531441 C58.81682301 362.67082222 60.05754566 362.64633003 61.33586597 362.62109566 C62.58045582 362.61980659 63.82504566 362.61851753 65.10735035 362.61718941 C71.81974571 362.80909356 71.81974571 362.80909356 77.77336597 360.24609566 C78.8560306 356.99810179 78.91329209 354.60365265 78.93449879 351.18579292 C78.94410633 349.93762291 78.95371387 348.6894529 78.96361256 347.40345955 C78.96845997 346.03980886 78.97273893 344.67615605 78.97649097 343.31250191 C78.98224442 341.91389654 78.98800213 340.5152912 78.99376392 339.11668587 C79.00426332 336.1854535 79.01011322 333.25424848 79.01360035 330.32299995 C79.01908913 326.569083 79.04312935 322.81552801 79.0715723 319.06172466 C79.09020358 316.1732242 79.09540448 313.28481097 79.09693623 310.39625549 C79.09996117 309.01237123 79.10798446 307.62848845 79.12112141 306.24466324 C79.13819338 304.30844623 79.13445516 302.37207963 79.12981129 300.43579292 C79.13345692 299.33453575 79.13710255 298.23327858 79.14085865 297.09864998 C78.72741495 293.88941428 78.0596057 292.50906337 75.77336597 290.24609566 C72.73119874 289.6276 72.73119874 289.6276 69.24211597 289.71484566 C67.31432301 289.70711128 67.31432301 289.70711128 65.34758472 289.69922066 C64.34477467 289.71178902 64.34477467 289.71178902 63.32170582 289.72461128 C61.27964417 289.74602981 59.24109959 289.72481273 57.19914722 289.69922066 C55.91395191 289.70437691 54.6287566 289.70953316 53.30461597 289.71484566 C52.12447926 289.71935738 50.94434254 289.72386909 49.7284441 289.72851753 C46.74581852 289.96164346 46.74581852 289.96164346 45.11392689 291.88684273 Z " fill="#FFA7F9" transform="translate(125.22663402557373,15.753904342651367)"/>
<path d="M0 0 C1.60488281 0.00483398 1.60488281 0.00483398 3.2421875 0.00976562 C4.35335937 0.01814453 5.46453125 0.02652344 6.609375 0.03515625 C8.29933594 0.04192383 8.29933594 0.04192383 10.0234375 0.04882812 C12.80213717 0.06060228 15.58072909 0.07704785 18.359375 0.09765625 C18.36140979 1.24727988 18.36140979 1.24727988 18.36348569 2.42012823 C18.44414112 47.8472281 18.53509793 93.27429735 18.63942661 138.70134934 C18.65194544 144.15620538 18.66437822 149.61106161 18.67675781 155.06591797 C18.67922381 156.15187864 18.6816898 157.23783931 18.68423052 158.35670789 C18.72395089 175.93889582 18.75670143 193.52109018 18.78687482 211.1032968 C18.81799219 229.14514237 18.85660285 247.18696069 18.90216506 265.22877562 C18.93004178 276.3609259 18.95207839 287.49305626 18.96663751 298.62523206 C18.9771821 306.25965942 18.99500725 313.8940482 19.01854204 321.52844648 C19.03190442 325.93262574 19.04207158 330.33675092 19.04358864 334.74095154 C19.04504976 338.7766871 19.05569679 342.81229253 19.07350941 346.84798808 C19.07834133 348.30440741 19.07986347 349.76084249 19.07765381 351.21726815 C19.06343108 362.43729726 19.06290227 373.91328498 26.359375 383.09765625 C35.36171335 391.21680478 44.15037044 392.39757203 55.83740234 392.37612915 C56.97538175 392.38192155 58.11336115 392.38771395 59.28582478 392.39368188 C63.08901629 392.41065172 66.89208622 392.41355584 70.6953125 392.41650391 C73.42552997 392.42470552 76.15573336 392.43588622 78.88594055 392.44694519 C84.75878386 392.46917846 90.63160985 392.48421534 96.50448608 392.49431229 C104.99558793 392.5089211 113.48662945 392.53446407 121.97769582 392.56264357 C135.75513408 392.6080716 149.53258104 392.64470287 163.31005859 392.67578125 C176.69060799 392.70598315 190.07113611 392.74034094 203.45166016 392.78027344 C204.27695614 392.78273499 205.10225213 392.78519653 205.95255709 392.78773268 C210.09297995 392.8001076 214.23340257 392.81256407 218.37382507 392.82506108 C252.70231266 392.92856913 287.03082445 393.01779207 321.359375 393.09765625 C321.41788424 396.78508859 321.45314173 400.47239995 321.484375 404.16015625 C321.50113281 405.19849609 321.51789063 406.23683594 321.53515625 407.30664062 C321.61886364 420.49055398 321.61886364 420.49055398 316.921875 425.91015625 C313.04126676 429.2228706 311.05236559 430.34761484 306.00663948 430.35213184 C304.88906325 430.35796404 303.77148701 430.36379623 302.62004483 430.36980516 C301.3870905 430.36602583 300.15413616 430.36224651 298.88381958 430.35835266 C296.92516128 430.36409098 296.92516128 430.36409098 294.92693412 430.36994523 C291.29483162 430.38026611 287.66282737 430.37803306 284.03071666 430.37376463 C280.11651581 430.37130478 276.20233908 430.38030237 272.28814697 430.38780212 C264.6166412 430.40057212 256.9451704 430.40233993 249.27365579 430.40000186 C243.03949778 430.398221 236.80535042 430.39996336 230.5711937 430.4042263 C229.68492818 430.40482149 228.79866267 430.40541668 227.88554063 430.40602991 C226.08525388 430.40724162 224.28496714 430.40845576 222.4846804 430.40967228 C205.58914402 430.42055682 188.69362759 430.41838109 171.79809009 430.41228744 C156.3337022 430.40711825 140.86937731 430.41837214 125.40500189 430.43738566 C109.53611266 430.45674732 93.66725325 430.46502295 77.79835212 430.4612624 C68.88522194 430.45934771 59.97214538 430.46186386 51.05902481 430.47597694 C43.47065776 430.48787049 35.88237731 430.48931853 28.2940091 430.47718678 C24.4210029 430.4712836 20.54815525 430.47023812 16.67515945 430.48218918 C12.47961222 430.49498525 8.28444498 430.48461769 4.08889771 430.47187805 C2.86040482 430.47925234 1.63191193 430.48662662 0.36619198 430.49422437 C-0.75659975 430.48701783 -1.87939148 430.47981128 -3.0362072 430.47238636 C-4.00476642 430.47244138 -4.97332565 430.47249639 -5.97123516 430.47255307 C-10.419585 429.84781397 -12.97436052 427.85645746 -15.890625 424.53515625 C-18.73877404 420.56809152 -18.76778229 418.3725406 -18.77484608 413.4836092 C-18.77719831 412.79285385 -18.77955054 412.1020985 -18.78197405 411.39041117 C-18.78868397 409.05260176 -18.78820523 406.71484767 -18.78779602 404.37702942 C-18.79109341 402.69324794 -18.79481871 401.00946726 -18.7989375 399.32568759 C-18.8089799 394.6804757 -18.81267789 390.03527674 -18.81532681 385.39005554 C-18.81922326 380.38717781 -18.82880206 375.38431038 -18.83753967 370.38143921 C-18.85732314 358.29018177 -18.86737284 346.19892347 -18.87626746 334.10765389 C-18.88064743 328.41777891 -18.886015 322.72790486 -18.89125633 317.03803062 C-18.90827076 298.13040389 -18.92276566 279.22277775 -18.93000507 260.31514454 C-18.93191506 255.40597851 -18.93383538 250.49681249 -18.93579102 245.58764648 C-18.93627476 244.36745222 -18.9367585 243.14725795 -18.9372569 241.8900881 C-18.94555986 222.1170441 -18.97090033 202.34406054 -19.00337169 182.57104293 C-19.03641661 162.28383196 -19.05445152 141.99665174 -19.05764931 121.70941371 C-19.05981683 110.31349389 -19.06860073 98.91766221 -19.09411049 87.52176857 C-19.11578246 77.81771465 -19.1238852 68.11377026 -19.11414371 58.40969489 C-19.10958879 53.45695147 -19.11155431 48.5044342 -19.13090515 43.55172157 C-19.14846473 39.01838624 -19.14759793 34.48544326 -19.13200786 29.95210417 C-19.12962079 28.3113995 -19.13401202 26.67066816 -19.14583651 25.03000436 C-19.1609151 22.79982857 -19.15131268 20.57105026 -19.13560963 18.340909 C-19.13658644 17.10220627 -19.13756324 15.86350354 -19.13856965 14.58726436 C-18.50633999 10.15658366 -17.13044004 7.80486486 -14.640625 4.09765625 C-9.92450385 0.56056539 -5.78405413 -0.03076625 0 0 Z " fill="#FFA7F9" transform="translate(79.640625,65.90234375)"/>
<path d="M0 0 C9.66527746 4.45387988 17.05741189 13.90967033 24.48828125 21.35546875 C25.68020812 22.54672069 26.8722833 23.73782426 28.0644989 24.92878723 C30.5479622 27.41078478 33.0296293 29.89456041 35.51000977 32.37963867 C38.68519958 35.5605501 41.86489208 38.73691682 45.04592609 41.91198254 C47.50213039 44.36457205 49.95594653 46.81953975 52.40904808 49.27523232 C53.58087013 50.4477198 54.75343094 51.61946945 55.92675209 52.79045677 C57.56338445 54.42454483 59.19676939 56.06181214 60.8293457 57.69995117 C61.75785843 58.62925949 62.68637115 59.55856781 63.64302063 60.51603699 C69 66.16162676 69 66.16162676 69 69 C61.41110638 69.09286979 53.82227203 69.16385075 46.23293877 69.20724869 C42.70847306 69.22808269 39.18439747 69.25632202 35.66015625 69.30175781 C31.60412957 69.35371956 27.54850971 69.37297967 23.4921875 69.390625 C22.23260223 69.41127014 20.97301697 69.43191528 19.67526245 69.45318604 C8.56247803 69.45602946 8.56247803 69.45602946 4 65 C-0.63924593 60.24992871 -0.45479832 55.62590373 -0.45318604 49.32473755 C-0.43254089 48.06515228 -0.41189575 46.80556702 -0.390625 45.5078125 C-0.38496521 44.20673553 -0.37930542 42.90565857 -0.37347412 41.56515503 C-0.35827244 38.12240319 -0.31903993 34.68033682 -0.2746582 31.237854 C-0.23358604 27.71855947 -0.21543779 24.19915312 -0.1953125 20.6796875 C-0.15253873 13.78617848 -0.08435522 6.89312224 0 0 Z " fill="#FFA6F9" transform="translate(381,17)"/>
</svg>
