<?xml version="1.0" encoding="UTF-8"?>
<svg version="1.1" xmlns="http://www.w3.org/2000/svg" width="512" height="512">
<path d="M0 0 C1.01790619 0.00215515 2.03581238 0.0043103 3.08456421 0.00653076 C17.69363523 0.05620146 32.02575853 0.30709809 46.375 3.3125 C47.34985352 3.51117676 48.32470703 3.70985352 49.32910156 3.91455078 C88.37782454 12.08284366 124.83813271 27.70153311 156.375 52.3125 C157.27089844 52.99699219 158.16679687 53.68148437 159.08984375 54.38671875 C174.64561709 66.50203669 189.29582193 80.73146847 201.375 96.3125 C202.14972656 97.27027344 202.92445313 98.22804688 203.72265625 99.21484375 C238.26056965 142.61986011 256.81394766 197.76289597 256.69067383 253.03979492 C256.6875221 255.97938487 256.71104926 258.9179558 256.73632812 261.85742188 C256.78098737 275.23056192 255.57551542 288.12666711 253.375 301.3125 C253.09281616 303.01805054 253.09281616 303.01805054 252.80493164 304.75805664 C245.77946967 343.86954746 228.79665906 381.05202178 204.375 412.3125 C203.61574219 413.28445313 202.85648437 414.25640625 202.07421875 415.2578125 C189.73986402 430.63741644 175.93895499 445.19015196 160.375 457.3125 C159.43914062 458.07691406 158.50328125 458.84132813 157.5390625 459.62890625 C125.58628299 485.2157721 86.41988322 501.72551276 46.375 509.3125 C45.56562988 509.47621094 44.75625977 509.63992188 43.92236328 509.80859375 C13.88110013 515.67977137 -20.7615176 514.58512909 -50.625 508.3125 C-52.14794678 507.99901611 -52.14794678 507.99901611 -53.70166016 507.67919922 C-90.84546555 499.78695344 -125.70945445 483.68345578 -155.625 460.3125 C-156.59695312 459.55324219 -157.56890625 458.79398437 -158.5703125 458.01171875 C-173.94991644 445.67736402 -188.50265196 431.87645499 -200.625 416.3125 C-201.77162109 414.90871094 -201.77162109 414.90871094 -202.94140625 413.4765625 C-228.5282721 381.52378299 -245.03801276 342.35738322 -252.625 302.3125 C-252.78871094 301.50312988 -252.95242187 300.69375977 -253.12109375 299.85986328 C-258.59069558 271.87335724 -258.46977511 238.21828161 -252.625 210.3125 C-252.42632324 209.33764648 -252.22764648 208.36279297 -252.02294922 207.35839844 C-241.93598313 159.13741149 -219.89911449 114.53770064 -185.40722656 79.14160156 C-183.63301167 77.32072238 -181.87518486 75.48496071 -180.1171875 73.6484375 C-173.01562574 66.30860161 -165.60158994 59.73928631 -157.40917969 53.64355469 C-155.59628085 52.2910746 -153.80174757 50.91656557 -152.0078125 49.5390625 C-143.60124472 43.15234877 -134.85975388 37.61076633 -125.65234375 32.45166016 C-123.78933792 31.40484113 -121.94116361 30.33571119 -120.09375 29.26171875 C-83.4933446 8.69459905 -41.63834482 -0.15855121 0 0 Z M30.04776573 133.12757683 C29.27398394 133.84552988 28.50020214 134.56348293 27.70297241 135.30319214 C26.83161022 136.11081875 25.96024803 136.91844536 25.06248093 137.7505455 C20.63207458 141.97401714 16.27070732 146.26097087 11.93994141 150.58642578 C10.94022839 151.58149516 9.9403243 152.5763726 8.94024658 153.57107544 C6.25635863 156.24200176 3.57567125 158.91611624 0.89601946 161.5912919 C-0.78240757 163.26676679 -2.46141099 164.94166203 -4.14058304 166.61639023 C-9.40744239 171.86962889 -14.67233651 177.12482518 -19.9343313 182.3829366 C-25.98627631 188.43038845 -32.04473303 194.47121634 -38.1088537 200.5064584 C-42.81587639 205.19184735 -47.51710169 209.8830021 -52.21398795 214.57855213 C-55.01164946 217.37516854 -57.81165896 220.16933064 -60.61774826 222.95749283 C-63.25265924 225.57588967 -65.88027305 228.20139764 -68.50255585 230.83243942 C-69.91846909 232.2494855 -71.34178755 233.65912029 -72.76535034 235.06848145 C-79.34169762 241.68795256 -84.16974473 247.21225007 -84.70703125 256.83984375 C-84.27800727 269.77185221 -70.82024254 279.26924965 -62.36694336 287.74755859 C-61.37350625 288.7472816 -60.38025103 289.74718538 -59.38716125 290.74725342 C-56.16654376 293.98862858 -52.94085013 297.22492715 -49.71484375 300.4609375 C-48.59654799 301.58328885 -47.47828306 302.70567091 -46.36004829 303.82808304 C-41.11188932 309.09521658 -35.86137511 314.35998813 -30.607912 319.6218313 C-24.56734706 325.67219624 -18.53518487 331.73078224 -12.5098905 337.7963537 C-7.83131963 342.50511381 -3.14507054 347.20614355 1.54696363 351.90148795 C4.34100994 354.69787761 7.13169458 357.49743302 9.91426277 360.30524826 C12.528036 362.94236249 15.1512432 365.56971842 17.78183174 368.19005585 C19.19679722 369.60429341 20.60187162 371.02840585 22.00656128 372.45285034 C28.14205433 378.5385863 34.30407732 383.93454489 43.375 384.3125 C50.05757322 383.43675956 55.06532164 380.87880928 59.625 375.8125 C62.5733499 371.60057157 63.68259942 368.76582469 63.75 363.5625 C63.77835938 362.57765625 63.80671875 361.5928125 63.8359375 360.578125 C62.56539465 351.5766519 56.68157149 346.05946064 50.47558594 339.95898438 C49.57767334 339.06048767 48.67976074 338.16199097 47.75463867 337.23626709 C45.3092798 334.78976741 42.85184641 332.35574 40.39194775 329.92387199 C37.81694508 327.37398932 35.25337513 324.81266335 32.6885376 322.25256348 C27.83759007 317.4140147 22.97654318 312.58574726 18.11172509 307.76114893 C12.57055413 302.26479247 7.04082865 296.75698153 1.51200438 291.24820995 C-9.85436817 279.92357145 -21.23492804 268.61330296 -32.625 257.3125 C-31.20538773 254.08115008 -29.49715052 251.944233 -26.99465942 249.46856689 C-25.86329559 248.34175003 -25.86329559 248.34175003 -24.70907593 247.19216919 C-23.88098419 246.37755219 -23.05289246 245.56293518 -22.19970703 244.72363281 C-21.3280188 243.8580777 -20.45633057 242.99252258 -19.55822754 242.10073853 C-17.6636377 240.22046208 -15.76736574 238.34207245 -13.86816788 236.46646881 C-10.86132383 233.49627939 -7.86324425 230.51734838 -4.8666687 227.5368042 C3.65517131 219.06321056 12.18863426 210.60138016 20.73095703 202.1484375 C25.4503959 197.47822514 30.16251706 192.80075048 34.86702073 188.11549258 C37.83996177 185.15558279 40.8216596 182.20488837 43.81030631 179.26084185 C46.11193877 176.98834205 48.40037256 174.70261149 50.69091797 172.41894531 C51.51496124 171.61242523 52.33900452 170.80590515 53.1880188 169.97494507 C59.13622499 164.00632133 63.94952943 158.16616407 63.9375 149.3125 C63.73130701 143.48018391 62.22707917 139.66976988 58.375 135.3125 C50.0884289 127.63226337 39.3545224 125.86897008 30.04776573 133.12757683 Z " fill="#3E3E3E" transform="translate(255.625,-0.3125)"/>
</svg>
